<svg width="3840" height="2160" viewBox="0 0 3840 2160" fill="none" xmlns="http://www.w3.org/2000/svg">
<g clip-path="url(#clip0_753_360)">
<rect width="3840" height="2160" fill="#18181c"/>
<path d="M-9.35675 2120.38L-24.7367 2105C-30.5947 2099.15 -40.1023 2099.16 -45.9725 2105.03L-144.29 2203.34C-150.16 2209.21 -150.17 2218.72 -144.312 2224.58L-128.932 2239.96C-123.074 2245.82 -113.566 2245.81 -107.697 2239.94L-9.3788 2141.62C-3.50856 2135.75 -3.49871 2126.24 -9.35675 2120.38Z" fill="#26262b"/>
<path d="M108.132 2136.54L92.7522 2121.16C86.8938 2115.3 77.3864 2115.31 71.5162 2121.18L-77.4665 2270.17C-83.3362 2276.04 -83.3465 2285.54 -77.4881 2291.4L-62.1083 2306.78C-56.2499 2312.64 -46.7427 2312.63 -40.873 2306.76L108.11 2157.78C113.98 2151.91 113.99 2142.4 108.132 2136.54Z" fill="#26262b"/>
<path d="M77.6992 2300.62L62.3194 2285.24C56.461 2279.38 46.9538 2279.39 41.0841 2285.26L-10.6434 2336.99C-16.5139 2342.86 -16.5245 2352.37 -10.6661 2358.23L4.71367 2373.6C10.5721 2379.46 20.0793 2379.45 25.9497 2373.58L77.6772 2321.85C83.547 2315.98 83.5576 2306.48 77.6992 2300.62Z" fill="#26262b"/>
<path d="M421.643 2120.22L406.263 2104.84C400.405 2098.98 390.898 2098.99 385.027 2104.86L286.71 2203.18C280.84 2209.05 280.83 2218.56 286.688 2224.42L302.068 2239.8C307.926 2245.65 317.434 2245.64 323.303 2239.78L421.621 2141.46C427.491 2135.59 427.501 2126.08 421.643 2120.22Z" fill="#26262b"/>
<path d="M539.132 2136.38L523.752 2121C517.894 2115.14 508.386 2115.15 502.516 2121.02L353.534 2270.01C347.664 2275.88 347.653 2285.38 353.512 2291.24L368.892 2306.62C374.75 2312.48 384.257 2312.47 390.127 2306.6L539.11 2157.62C544.98 2151.75 544.99 2142.24 539.132 2136.38Z" fill="#26262b"/>
<path d="M508.699 2300.46L493.319 2285.08C487.461 2279.22 477.954 2279.23 472.084 2285.1L420.357 2336.83C414.486 2342.7 414.475 2352.2 420.334 2358.06L435.714 2373.44C441.572 2379.3 451.079 2379.29 456.95 2373.42L508.677 2321.69C514.547 2315.82 514.558 2306.32 508.699 2300.46Z" fill="#26262b"/>
<path d="M852.643 2120.06L837.263 2104.68C831.405 2098.82 821.898 2098.83 816.027 2104.7L717.71 2203.02C711.84 2208.89 711.83 2218.4 717.688 2224.25L733.068 2239.63C738.926 2245.49 748.434 2245.48 754.303 2239.61L852.621 2141.3C858.491 2135.42 858.501 2125.92 852.643 2120.06Z" fill="#26262b"/>
<path d="M970.132 2136.22L954.752 2120.84C948.894 2114.98 939.386 2114.99 933.516 2120.86L784.534 2269.84C778.664 2275.71 778.654 2285.22 784.512 2291.08L799.892 2306.46C805.75 2312.32 815.257 2312.31 821.127 2306.44L970.11 2157.45C975.98 2151.58 975.99 2142.08 970.132 2136.22Z" fill="#26262b"/>
<path d="M939.699 2300.3L924.319 2284.92C918.461 2279.06 908.954 2279.07 903.084 2284.94L851.357 2336.66C845.486 2342.54 845.475 2352.04 851.334 2357.9L866.714 2373.28C872.572 2379.14 882.079 2379.13 887.95 2373.26L939.677 2321.53C945.547 2315.66 945.558 2306.15 939.699 2300.3Z" fill="#26262b"/>
<path d="M1283.64 2119.9L1268.26 2104.52C1262.41 2098.66 1252.9 2098.67 1247.03 2104.54L1148.71 2202.86C1142.84 2208.73 1142.83 2218.23 1148.69 2224.09L1164.07 2239.47C1169.93 2245.33 1179.43 2245.32 1185.3 2239.45L1283.62 2141.13C1289.49 2135.26 1289.5 2125.76 1283.64 2119.9Z" fill="#26262b"/>
<path d="M1401.13 2136.06L1385.75 2120.68C1379.89 2114.82 1370.39 2114.83 1364.52 2120.7L1215.53 2269.68C1209.66 2275.55 1209.65 2285.06 1215.51 2290.92L1230.89 2306.3C1236.75 2312.16 1246.26 2312.14 1252.13 2306.27L1401.11 2157.29C1406.98 2151.42 1406.99 2141.91 1401.13 2136.06Z" fill="#26262b"/>
<path d="M1370.7 2300.13L1355.32 2284.75C1349.46 2278.89 1339.95 2278.91 1334.08 2284.78L1282.36 2336.5C1276.49 2342.37 1276.48 2351.88 1282.33 2357.74L1297.71 2373.12C1303.57 2378.98 1313.08 2378.97 1318.95 2373.1L1370.68 2321.37C1376.55 2315.5 1376.56 2305.99 1370.7 2300.13Z" fill="#26262b"/>
<path d="M1714.64 2119.74L1699.26 2104.35C1693.41 2098.5 1683.9 2098.51 1678.03 2104.38L1579.71 2202.7C1573.84 2208.56 1573.83 2218.07 1579.69 2223.93L1595.07 2239.31C1600.93 2245.17 1610.43 2245.16 1616.3 2239.29L1714.62 2140.97C1720.49 2135.1 1720.5 2125.59 1714.64 2119.74Z" fill="#26262b"/>
<path d="M1832.13 2135.89L1816.75 2120.51C1810.89 2114.66 1801.39 2114.67 1795.52 2120.54L1646.53 2269.52C1640.66 2275.39 1640.65 2284.9 1646.51 2290.75L1661.89 2306.13C1667.75 2311.99 1677.26 2311.98 1683.13 2306.11L1832.11 2157.13C1837.98 2151.26 1837.99 2141.75 1832.13 2135.89Z" fill="#26262b"/>
<path d="M1801.7 2299.97L1786.32 2284.59C1780.46 2278.73 1770.95 2278.74 1765.08 2284.61L1713.36 2336.34C1707.49 2342.21 1707.48 2351.72 1713.33 2357.58L1728.71 2372.96C1734.57 2378.81 1744.08 2378.8 1749.95 2372.93L1801.68 2321.21C1807.55 2315.34 1807.56 2305.83 1801.7 2299.97Z" fill="#26262b"/>
<path d="M2145.64 2119.57L2130.26 2104.19C2124.41 2098.33 2114.9 2098.34 2109.03 2104.22L2010.71 2202.53C2004.84 2208.4 2004.83 2217.91 2010.69 2223.77L2026.07 2239.15C2031.93 2245.01 2041.43 2245 2047.3 2239.13L2145.62 2140.81C2151.49 2134.94 2151.5 2125.43 2145.64 2119.57Z" fill="#26262b"/>
<path d="M2263.13 2135.73L2247.75 2120.35C2241.89 2114.49 2232.39 2114.5 2226.52 2120.37L2077.53 2269.36C2071.66 2275.23 2071.65 2284.73 2077.51 2290.59L2092.89 2305.97C2098.75 2311.83 2108.26 2311.82 2114.13 2305.95L2263.11 2156.97C2268.98 2151.1 2268.99 2141.59 2263.13 2135.73Z" fill="#26262b"/>
<path d="M2232.7 2299.81L2217.32 2284.43C2211.46 2278.57 2201.95 2278.58 2196.08 2284.45L2144.36 2336.18C2138.49 2342.05 2138.48 2351.56 2144.33 2357.41L2159.71 2372.79C2165.57 2378.65 2175.08 2378.64 2180.95 2372.77L2232.68 2321.04C2238.55 2315.17 2238.56 2305.67 2232.7 2299.81Z" fill="#26262b"/>
<path d="M2576.64 2119.41L2561.26 2104.03C2555.41 2098.17 2545.9 2098.18 2540.03 2104.05L2441.71 2202.37C2435.84 2208.24 2435.83 2217.75 2441.69 2223.61L2457.07 2238.99C2462.93 2244.84 2472.43 2244.83 2478.3 2238.96L2576.62 2140.65C2582.49 2134.78 2582.5 2125.27 2576.64 2119.41Z" fill="#26262b"/>
<path d="M2694.13 2135.57L2678.75 2120.19C2672.89 2114.33 2663.39 2114.34 2657.52 2120.21L2508.53 2269.19C2502.66 2275.06 2502.65 2284.57 2508.51 2290.43L2523.89 2305.81C2529.75 2311.67 2539.26 2311.66 2545.13 2305.79L2694.11 2156.81C2699.98 2150.94 2699.99 2141.43 2694.13 2135.57Z" fill="#26262b"/>
<path d="M2663.7 2299.65L2648.32 2284.27C2642.46 2278.41 2632.95 2278.42 2627.08 2284.29L2575.36 2336.02C2569.49 2341.89 2569.48 2351.39 2575.33 2357.25L2590.71 2372.63C2596.57 2378.49 2606.08 2378.48 2611.95 2372.61L2663.68 2320.88C2669.55 2315.01 2669.56 2305.51 2663.7 2299.65Z" fill="#26262b"/>
<path d="M3007.64 2119.25L2992.26 2103.87C2986.41 2098.01 2976.9 2098.02 2971.03 2103.89L2872.71 2202.21C2866.84 2208.08 2866.83 2217.59 2872.69 2223.44L2888.07 2238.82C2893.93 2244.68 2903.43 2244.67 2909.3 2238.8L3007.62 2140.48C3013.49 2134.61 3013.5 2125.11 3007.64 2119.25Z" fill="#26262b"/>
<path d="M3125.13 2135.41L3109.75 2120.03C3103.89 2114.17 3094.39 2114.18 3088.52 2120.05L2939.53 2269.03C2933.66 2274.9 2933.65 2284.41 2939.51 2290.27L2954.89 2305.65C2960.75 2311.51 2970.26 2311.5 2976.13 2305.63L3125.11 2156.64C3130.98 2150.77 3130.99 2141.27 3125.13 2135.41Z" fill="#26262b"/>
<path d="M3094.7 2299.48L3079.32 2284.1C3073.46 2278.25 3063.95 2278.26 3058.08 2284.13L3006.36 2335.85C3000.49 2341.72 3000.48 2351.23 3006.33 2357.09L3021.71 2372.47C3027.57 2378.33 3037.08 2378.32 3042.95 2372.45L3094.68 2320.72C3100.55 2314.85 3100.56 2305.34 3094.7 2299.48Z" fill="#26262b"/>
<path d="M3438.64 2119.09L3423.26 2103.71C3417.41 2097.85 3407.9 2097.86 3402.03 2103.73L3303.71 2202.05C3297.84 2207.92 3297.83 2217.42 3303.69 2223.28L3319.07 2238.66C3324.93 2244.52 3334.43 2244.51 3340.3 2238.64L3438.62 2140.32C3444.49 2134.45 3444.5 2124.94 3438.64 2119.09Z" fill="#26262b"/>
<path d="M3556.13 2135.25L3540.75 2119.87C3534.89 2114.01 3525.39 2114.02 3519.52 2119.89L3370.53 2268.87C3364.66 2274.74 3364.65 2284.25 3370.51 2290.11L3385.89 2305.49C3391.75 2311.34 3401.26 2311.33 3407.13 2305.46L3556.11 2156.48C3561.98 2150.61 3561.99 2141.1 3556.13 2135.25Z" fill="#26262b"/>
<path d="M3525.7 2299.32L3510.32 2283.94C3504.46 2278.08 3494.95 2278.09 3489.08 2283.96L3437.36 2335.69C3431.49 2341.56 3431.48 2351.07 3437.33 2356.93L3452.71 2372.31C3458.57 2378.17 3468.08 2378.16 3473.95 2372.29L3525.68 2320.56C3531.55 2314.69 3531.56 2305.18 3525.7 2299.32Z" fill="#26262b"/>
<path d="M3869.64 2118.92L3854.26 2103.54C3848.41 2097.69 3838.9 2097.7 3833.03 2103.57L3734.71 2201.88C3728.84 2207.75 3728.83 2217.26 3734.69 2223.12L3750.07 2238.5C3755.93 2244.36 3765.43 2244.35 3771.3 2238.48L3869.62 2140.16C3875.49 2134.29 3875.5 2124.78 3869.64 2118.92Z" fill="#26262b"/>
<path d="M3987.13 2135.08L3971.75 2119.7C3965.89 2113.85 3956.39 2113.86 3950.52 2119.73L3801.53 2268.71C3795.66 2274.58 3795.65 2284.09 3801.51 2289.94L3816.89 2305.32C3822.75 2311.18 3832.26 2311.17 3838.13 2305.3L3987.11 2156.32C3992.98 2150.45 3992.99 2140.94 3987.13 2135.08Z" fill="#26262b"/>
<path d="M3956.7 2299.16L3941.32 2283.78C3935.46 2277.92 3925.95 2277.93 3920.08 2283.8L3868.36 2335.53C3862.49 2341.4 3862.48 2350.91 3868.33 2356.77L3883.71 2372.15C3889.57 2378 3899.08 2377.99 3904.95 2372.12L3956.68 2320.4C3962.55 2314.53 3962.56 2305.02 3956.7 2299.16Z" fill="#26262b"/>
<path d="M-9.35674 1694.27L-24.7367 1678.89C-30.5947 1673.04 -40.1023 1673.05 -45.9725 1678.92L-144.29 1777.23C-150.16 1783.1 -150.17 1792.61 -144.312 1798.47L-128.932 1813.85C-123.074 1819.71 -113.566 1819.7 -107.697 1813.83L-9.3788 1715.51C-3.50856 1709.64 -3.4987 1700.13 -9.35674 1694.27Z" fill="#26262b"/>
<path d="M108.132 1710.43L92.7522 1695.05C86.8938 1689.2 77.3864 1689.21 71.5162 1695.08L-77.4665 1844.06C-83.3362 1849.93 -83.3465 1859.44 -77.4881 1865.29L-62.1083 1880.67C-56.2499 1886.53 -46.7427 1886.52 -40.873 1880.65L108.11 1731.67C113.98 1725.8 113.99 1716.29 108.132 1710.43Z" fill="#26262b"/>
<path d="M77.6992 1874.51L62.3194 1859.13C56.461 1853.27 46.9539 1853.28 41.0841 1859.15L-10.6434 1910.88C-16.5139 1916.75 -16.5245 1926.26 -10.6661 1932.12L4.71367 1947.5C10.5721 1953.35 20.0793 1953.34 25.9497 1947.47L77.6772 1895.75C83.547 1889.88 83.5576 1880.37 77.6992 1874.51Z" fill="#26262b"/>
<path d="M421.643 1694.11L406.263 1678.73C400.405 1672.87 390.898 1672.88 385.027 1678.75L286.71 1777.07C280.84 1782.94 280.83 1792.45 286.688 1798.31L302.068 1813.69C307.926 1819.55 317.434 1819.54 323.303 1813.67L421.621 1715.35C427.491 1709.48 427.501 1699.97 421.643 1694.11Z" fill="#26262b"/>
<path d="M539.132 1710.27L523.752 1694.89C517.894 1689.03 508.386 1689.04 502.516 1694.91L353.534 1843.9C347.664 1849.77 347.653 1859.27 353.512 1865.13L368.892 1880.51C374.75 1886.37 384.257 1886.36 390.127 1880.49L539.11 1731.51C544.98 1725.64 544.99 1716.13 539.132 1710.27Z" fill="#26262b"/>
<path d="M508.699 1874.35L493.319 1858.97C487.461 1853.11 477.954 1853.12 472.084 1858.99L420.357 1910.72C414.486 1916.59 414.475 1926.1 420.334 1931.95L435.714 1947.33C441.572 1953.19 451.079 1953.18 456.95 1947.31L508.677 1895.58C514.547 1889.71 514.558 1880.21 508.699 1874.35Z" fill="#26262b"/>
<path d="M852.643 1693.95L837.263 1678.57C831.405 1672.71 821.898 1672.72 816.027 1678.59L717.71 1776.91C711.84 1782.78 711.83 1792.29 717.688 1798.15L733.068 1813.53C738.926 1819.38 748.434 1819.37 754.303 1813.5L852.621 1715.19C858.491 1709.32 858.501 1699.81 852.643 1693.95Z" fill="#26262b"/>
<path d="M970.132 1710.11L954.752 1694.73C948.894 1688.87 939.386 1688.88 933.516 1694.75L784.534 1843.73C778.664 1849.6 778.654 1859.11 784.512 1864.97L799.892 1880.35C805.75 1886.21 815.257 1886.2 821.127 1880.33L970.11 1731.34C975.98 1725.47 975.99 1715.97 970.132 1710.11Z" fill="#26262b"/>
<path d="M939.699 1874.19L924.319 1858.81C918.461 1852.95 908.954 1852.96 903.084 1858.83L851.357 1910.56C845.486 1916.43 845.475 1925.93 851.334 1931.79L866.714 1947.17C872.572 1953.03 882.079 1953.02 887.95 1947.15L939.677 1895.42C945.547 1889.55 945.558 1880.04 939.699 1874.19Z" fill="#26262b"/>
<path d="M1283.64 1693.79L1268.26 1678.41C1262.41 1672.55 1252.9 1672.56 1247.03 1678.43L1148.71 1776.75C1142.84 1782.62 1142.83 1792.13 1148.69 1797.98L1164.07 1813.36C1169.93 1819.22 1179.43 1819.21 1185.3 1813.34L1283.62 1715.02C1289.49 1709.15 1289.5 1699.65 1283.64 1693.79Z" fill="#26262b"/>
<path d="M1401.13 1709.95L1385.75 1694.57C1379.89 1688.71 1370.39 1688.72 1364.52 1694.59L1215.53 1843.57C1209.66 1849.44 1209.65 1858.95 1215.51 1864.81L1230.89 1880.19C1236.75 1886.05 1246.26 1886.04 1252.13 1880.17L1401.11 1731.18C1406.98 1725.31 1406.99 1715.81 1401.13 1709.95Z" fill="#26262b"/>
<path d="M1370.7 1874.02L1355.32 1858.64C1349.46 1852.79 1339.95 1852.8 1334.08 1858.67L1282.36 1910.39C1276.49 1916.26 1276.48 1925.77 1282.33 1931.63L1297.71 1947.01C1303.57 1952.87 1313.08 1952.86 1318.95 1946.99L1370.68 1895.26C1376.55 1889.39 1376.56 1879.88 1370.7 1874.02Z" fill="#26262b"/>
<path d="M1714.64 1693.63L1699.26 1678.25C1693.41 1672.39 1683.9 1672.4 1678.03 1678.27L1579.71 1776.59C1573.84 1782.46 1573.83 1791.96 1579.69 1797.82L1595.07 1813.2C1600.93 1819.06 1610.43 1819.05 1616.3 1813.18L1714.62 1714.86C1720.49 1708.99 1720.5 1699.48 1714.64 1693.63Z" fill="#26262b"/>
<path d="M1832.13 1709.78L1816.75 1694.41C1810.89 1688.55 1801.39 1688.56 1795.52 1694.43L1646.53 1843.41C1640.66 1849.28 1640.65 1858.79 1646.51 1864.65L1661.89 1880.03C1667.75 1885.88 1677.26 1885.87 1683.13 1880L1832.11 1731.02C1837.98 1725.15 1837.99 1715.64 1832.13 1709.78Z" fill="#26262b"/>
<path d="M1801.7 1873.86L1786.32 1858.48C1780.46 1852.62 1770.95 1852.63 1765.08 1858.5L1713.36 1910.23C1707.49 1916.1 1707.48 1925.61 1713.33 1931.47L1728.71 1946.85C1734.57 1952.71 1744.08 1952.69 1749.95 1946.82L1801.68 1895.1C1807.55 1889.23 1807.56 1879.72 1801.7 1873.86Z" fill="#26262b"/>
<path d="M2145.64 1693.46L2130.26 1678.08C2124.41 1672.23 2114.9 1672.24 2109.03 1678.11L2010.71 1776.42C2004.84 1782.29 2004.83 1791.8 2010.69 1797.66L2026.07 1813.04C2031.93 1818.9 2041.43 1818.89 2047.3 1813.02L2145.62 1714.7C2151.49 1708.83 2151.5 1699.32 2145.64 1693.46Z" fill="#26262b"/>
<path d="M2263.13 1709.62L2247.75 1694.24C2241.89 1688.38 2232.39 1688.39 2226.52 1694.26L2077.53 1843.25C2071.66 1849.12 2071.65 1858.62 2077.51 1864.48L2092.89 1879.86C2098.75 1885.72 2108.26 1885.71 2114.13 1879.84L2263.11 1730.86C2268.98 1724.99 2268.99 1715.48 2263.13 1709.62Z" fill="#26262b"/>
<path d="M2232.7 1873.7L2217.32 1858.32C2211.46 1852.46 2201.95 1852.47 2196.08 1858.34L2144.36 1910.07C2138.49 1915.94 2138.48 1925.45 2144.33 1931.31L2159.71 1946.68C2165.57 1952.54 2175.08 1952.53 2180.95 1946.66L2232.68 1894.93C2238.55 1889.06 2238.56 1879.56 2232.7 1873.7Z" fill="#26262b"/>
<path d="M2576.64 1693.3L2561.26 1677.92C2555.41 1672.06 2545.9 1672.07 2540.03 1677.94L2441.71 1776.26C2435.84 1782.13 2435.83 1791.64 2441.69 1797.5L2457.07 1812.88C2462.93 1818.73 2472.43 1818.72 2478.3 1812.86L2576.62 1714.54C2582.49 1708.67 2582.5 1699.16 2576.64 1693.3Z" fill="#26262b"/>
<path d="M2694.13 1709.46L2678.75 1694.08C2672.89 1688.22 2663.39 1688.23 2657.52 1694.1L2508.53 1843.09C2502.66 1848.96 2502.65 1858.46 2508.51 1864.32L2523.89 1879.7C2529.75 1885.56 2539.26 1885.55 2545.13 1879.68L2694.11 1730.7C2699.98 1724.83 2699.99 1715.32 2694.13 1709.46Z" fill="#26262b"/>
<path d="M2663.7 1873.54L2648.32 1858.16C2642.46 1852.3 2632.95 1852.31 2627.08 1858.18L2575.36 1909.91C2569.49 1915.78 2569.48 1925.28 2575.33 1931.14L2590.71 1946.52C2596.57 1952.38 2606.08 1952.37 2611.95 1946.5L2663.68 1894.77C2669.55 1888.9 2669.56 1879.4 2663.7 1873.54Z" fill="#26262b"/>
<path d="M3007.64 1693.14L2992.26 1677.76C2986.41 1671.9 2976.9 1671.91 2971.03 1677.78L2872.71 1776.1C2866.84 1781.97 2866.83 1791.48 2872.69 1797.33L2888.07 1812.71C2893.93 1818.57 2903.43 1818.56 2909.3 1812.69L3007.62 1714.38C3013.49 1708.5 3013.5 1699 3007.64 1693.14Z" fill="#26262b"/>
<path d="M3125.13 1709.3L3109.75 1693.92C3103.89 1688.06 3094.39 1688.07 3088.52 1693.94L2939.53 1842.92C2933.66 1848.79 2933.65 1858.3 2939.51 1864.16L2954.89 1879.54C2960.75 1885.4 2970.26 1885.39 2976.13 1879.52L3125.11 1730.53C3130.98 1724.66 3130.99 1715.16 3125.13 1709.3Z" fill="#26262b"/>
<path d="M3094.7 1873.38L3079.32 1858C3073.46 1852.14 3063.95 1852.15 3058.08 1858.02L3006.36 1909.74C3000.49 1915.62 3000.48 1925.12 3006.33 1930.98L3021.71 1946.36C3027.57 1952.22 3037.08 1952.21 3042.95 1946.34L3094.68 1894.61C3100.55 1888.74 3100.56 1879.23 3094.7 1873.38Z" fill="#26262b"/>
<path d="M3438.64 1692.98L3423.26 1677.6C3417.41 1671.74 3407.9 1671.75 3402.03 1677.62L3303.71 1775.94C3297.84 1781.81 3297.83 1791.31 3303.69 1797.17L3319.07 1812.55C3324.93 1818.41 3334.43 1818.4 3340.3 1812.53L3438.62 1714.21C3444.49 1708.34 3444.5 1698.84 3438.64 1692.98Z" fill="#26262b"/>
<path d="M3556.13 1709.14L3540.75 1693.76C3534.89 1687.9 3525.39 1687.91 3519.52 1693.78L3370.53 1842.76C3364.66 1848.63 3364.65 1858.14 3370.51 1864L3385.89 1879.38C3391.75 1885.24 3401.26 1885.22 3407.13 1879.35L3556.11 1730.37C3561.98 1724.5 3561.99 1714.99 3556.13 1709.14Z" fill="#26262b"/>
<path d="M3525.7 1873.21L3510.32 1857.83C3504.46 1851.97 3494.95 1851.99 3489.08 1857.86L3437.36 1909.58C3431.49 1915.45 3431.48 1924.96 3437.33 1930.82L3452.71 1946.2C3458.57 1952.06 3468.08 1952.05 3473.95 1946.18L3525.68 1894.45C3531.55 1888.58 3531.56 1879.07 3525.7 1873.21Z" fill="#26262b"/>
<path d="M3869.64 1692.82L3854.26 1677.44C3848.41 1671.58 3838.9 1671.59 3833.03 1677.46L3734.71 1775.78C3728.84 1781.64 3728.83 1791.15 3734.69 1797.01L3750.07 1812.39C3755.93 1818.25 3765.43 1818.24 3771.3 1812.37L3869.62 1714.05C3875.49 1708.18 3875.5 1698.67 3869.64 1692.82Z" fill="#26262b"/>
<path d="M3987.13 1708.97L3971.75 1693.59C3965.89 1687.74 3956.39 1687.75 3950.52 1693.62L3801.53 1842.6C3795.66 1848.47 3795.65 1857.98 3801.51 1863.83L3816.89 1879.21C3822.75 1885.07 3832.26 1885.06 3838.13 1879.19L3987.11 1730.21C3992.98 1724.34 3992.99 1714.83 3987.13 1708.97Z" fill="#26262b"/>
<path d="M3956.7 1873.05L3941.32 1857.67C3935.46 1851.81 3925.95 1851.82 3920.08 1857.69L3868.36 1909.42C3862.49 1915.29 3862.48 1924.8 3868.33 1930.66L3883.71 1946.04C3889.57 1951.89 3899.08 1951.88 3904.95 1946.01L3956.68 1894.29C3962.55 1888.42 3962.56 1878.91 3956.7 1873.05Z" fill="#26262b"/>
<path d="M-9.35675 1267.98L-24.7367 1252.6C-30.5947 1246.74 -40.1023 1246.75 -45.9725 1252.62L-144.29 1350.94C-150.16 1356.81 -150.17 1366.31 -144.312 1372.17L-128.932 1387.55C-123.074 1393.41 -113.566 1393.4 -107.697 1387.53L-9.3788 1289.21C-3.50856 1283.34 -3.49871 1273.84 -9.35675 1267.98Z" fill="#26262b"/>
<path d="M108.132 1284.14L92.7522 1268.76C86.8938 1262.9 77.3864 1262.91 71.5162 1268.78L-77.4665 1417.76C-83.3362 1423.63 -83.3465 1433.14 -77.4881 1439L-62.1083 1454.38C-56.2499 1460.24 -46.7427 1460.22 -40.873 1454.35L108.11 1305.37C113.98 1299.5 113.99 1289.99 108.132 1284.14Z" fill="#26262b"/>
<path d="M77.6992 1448.21L62.3194 1432.83C56.461 1426.97 46.9538 1426.99 41.0841 1432.86L-10.6434 1484.58C-16.5139 1490.45 -16.5245 1499.96 -10.6661 1505.82L4.71367 1521.2C10.5721 1527.06 20.0793 1527.05 25.9497 1521.18L77.6772 1469.45C83.547 1463.58 83.5576 1454.07 77.6992 1448.21Z" fill="#26262b"/>
<path d="M421.643 1267.82L406.263 1252.44C400.405 1246.58 390.898 1246.59 385.027 1252.46L286.71 1350.78C280.84 1356.64 280.83 1366.15 286.688 1372.01L302.068 1387.39C307.926 1393.25 317.434 1393.24 323.303 1387.37L421.621 1289.05C427.491 1283.18 427.501 1273.67 421.643 1267.82Z" fill="#26262b"/>
<path d="M539.132 1283.97L523.752 1268.59C517.894 1262.74 508.386 1262.75 502.516 1268.62L353.534 1417.6C347.664 1423.47 347.653 1432.98 353.512 1438.83L368.892 1454.21C374.75 1460.07 384.257 1460.06 390.127 1454.19L539.11 1305.21C544.98 1299.34 544.99 1289.83 539.132 1283.97Z" fill="#26262b"/>
<path d="M508.699 1448.05L493.319 1432.67C487.461 1426.81 477.954 1426.82 472.084 1432.69L420.357 1484.42C414.486 1490.29 414.475 1499.8 420.334 1505.66L435.714 1521.04C441.572 1526.89 451.079 1526.88 456.95 1521.01L508.677 1469.29C514.547 1463.42 514.558 1453.91 508.699 1448.05Z" fill="#26262b"/>
<path d="M852.643 1267.65L837.263 1252.27C831.405 1246.42 821.898 1246.42 816.027 1252.3L717.71 1350.61C711.84 1356.48 711.83 1365.99 717.688 1371.85L733.068 1387.23C738.926 1393.09 748.434 1393.08 754.303 1387.21L852.621 1288.89C858.491 1283.02 858.501 1273.51 852.643 1267.65Z" fill="#26262b"/>
<path d="M970.132 1283.81L954.752 1268.43C948.894 1262.57 939.386 1262.58 933.516 1268.45L784.534 1417.44C778.664 1423.31 778.654 1432.81 784.512 1438.67L799.892 1454.05C805.75 1459.91 815.257 1459.9 821.127 1454.03L970.11 1305.05C975.98 1299.18 975.99 1289.67 970.132 1283.81Z" fill="#26262b"/>
<path d="M939.699 1447.89L924.319 1432.51C918.461 1426.65 908.954 1426.66 903.084 1432.53L851.357 1484.26C845.486 1490.13 845.475 1499.64 851.334 1505.49L866.714 1520.87C872.572 1526.73 882.079 1526.72 887.95 1520.85L939.677 1469.12C945.547 1463.25 945.558 1453.75 939.699 1447.89Z" fill="#26262b"/>
<path d="M1283.64 1267.49L1268.26 1252.11C1262.41 1246.25 1252.9 1246.26 1247.03 1252.13L1148.71 1350.45C1142.84 1356.32 1142.83 1365.83 1148.69 1371.69L1164.07 1387.07C1169.93 1392.92 1179.43 1392.91 1185.3 1387.04L1283.62 1288.73C1289.49 1282.86 1289.5 1273.35 1283.64 1267.49Z" fill="#26262b"/>
<path d="M1401.13 1283.65L1385.75 1268.27C1379.89 1262.41 1370.39 1262.42 1364.52 1268.29L1215.53 1417.27C1209.66 1423.14 1209.65 1432.65 1215.51 1438.51L1230.89 1453.89C1236.75 1459.75 1246.26 1459.74 1252.13 1453.87L1401.11 1304.89C1406.98 1299.02 1406.99 1289.51 1401.13 1283.65Z" fill="#26262b"/>
<path d="M1370.7 1447.73L1355.32 1432.35C1349.46 1426.49 1339.95 1426.5 1334.08 1432.37L1282.36 1484.1C1276.49 1489.97 1276.48 1499.47 1282.33 1505.33L1297.71 1520.71C1303.57 1526.57 1313.08 1526.56 1318.95 1520.69L1370.68 1468.96C1376.55 1463.09 1376.56 1453.59 1370.7 1447.73Z" fill="#26262b"/>
<path d="M1714.64 1267.33L1699.26 1251.95C1693.41 1246.09 1683.9 1246.1 1678.03 1251.97L1579.71 1350.29C1573.84 1356.16 1573.83 1365.67 1579.69 1371.52L1595.07 1386.9C1600.93 1392.76 1610.43 1392.75 1616.3 1386.88L1714.62 1288.56C1720.49 1282.69 1720.5 1273.19 1714.64 1267.33Z" fill="#26262b"/>
<path d="M1832.13 1283.49L1816.75 1268.11C1810.89 1262.25 1801.39 1262.26 1795.52 1268.13L1646.53 1417.11C1640.66 1422.98 1640.65 1432.49 1646.51 1438.35L1661.89 1453.73C1667.75 1459.59 1677.26 1459.58 1683.13 1453.71L1832.11 1304.72C1837.98 1298.85 1837.99 1289.35 1832.13 1283.49Z" fill="#26262b"/>
<path d="M1801.7 1447.56L1786.32 1432.18C1780.46 1426.33 1770.95 1426.34 1765.08 1432.21L1713.36 1483.93C1707.49 1489.8 1707.48 1499.31 1713.33 1505.17L1728.71 1520.55C1734.57 1526.41 1744.08 1526.4 1749.95 1520.53L1801.68 1468.8C1807.55 1462.93 1807.56 1453.42 1801.7 1447.56Z" fill="#26262b"/>
<path d="M2145.64 1267.17L2130.26 1251.79C2124.41 1245.93 2114.9 1245.94 2109.03 1251.81L2010.71 1350.13C2004.84 1356 2004.83 1365.5 2010.69 1371.36L2026.07 1386.74C2031.93 1392.6 2041.43 1392.59 2047.3 1386.72L2145.62 1288.4C2151.49 1282.53 2151.5 1273.02 2145.64 1267.17Z" fill="#26262b"/>
<path d="M2263.13 1283.33L2247.75 1267.95C2241.89 1262.09 2232.39 1262.1 2226.52 1267.97L2077.53 1416.95C2071.66 1422.82 2071.65 1432.33 2077.51 1438.19L2092.89 1453.57C2098.75 1459.42 2108.26 1459.41 2114.13 1453.54L2263.11 1304.56C2268.98 1298.69 2268.99 1289.18 2263.13 1283.33Z" fill="#26262b"/>
<path d="M2232.7 1447.4L2217.32 1432.02C2211.46 1426.16 2201.95 1426.17 2196.08 1432.04L2144.36 1483.77C2138.49 1489.64 2138.48 1499.15 2144.33 1505.01L2159.71 1520.39C2165.57 1526.25 2175.08 1526.24 2180.95 1520.37L2232.68 1468.64C2238.55 1462.77 2238.56 1453.26 2232.7 1447.4Z" fill="#26262b"/>
<path d="M2576.64 1267L2561.26 1251.62C2555.41 1245.77 2545.9 1245.78 2540.03 1251.65L2441.71 1349.96C2435.84 1355.83 2435.83 1365.34 2441.69 1371.2L2457.07 1386.58C2462.93 1392.44 2472.43 1392.43 2478.3 1386.56L2576.62 1288.24C2582.49 1282.37 2582.5 1272.86 2576.64 1267Z" fill="#26262b"/>
<path d="M2694.13 1283.16L2678.75 1267.78C2672.89 1261.93 2663.39 1261.94 2657.52 1267.81L2508.53 1416.79C2502.66 1422.66 2502.65 1432.17 2508.51 1438.02L2523.89 1453.4C2529.75 1459.26 2539.26 1459.25 2545.13 1453.38L2694.11 1304.4C2699.98 1298.53 2699.99 1289.02 2694.13 1283.16Z" fill="#26262b"/>
<path d="M2663.7 1447.24L2648.32 1431.86C2642.46 1426 2632.95 1426.01 2627.08 1431.88L2575.36 1483.61C2569.49 1489.48 2569.48 1498.99 2575.33 1504.85L2590.71 1520.23C2596.57 1526.08 2606.08 1526.07 2611.95 1520.2L2663.68 1468.48C2669.55 1462.61 2669.56 1453.1 2663.7 1447.24Z" fill="#26262b"/>
<path d="M3007.64 1266.84L2992.26 1251.46C2986.41 1245.6 2976.9 1245.61 2971.03 1251.48L2872.71 1349.8C2866.84 1355.67 2866.83 1365.18 2872.69 1371.04L2888.07 1386.42C2893.93 1392.28 2903.43 1392.27 2909.3 1386.4L3007.62 1288.08C3013.49 1282.21 3013.5 1272.7 3007.64 1266.84Z" fill="#26262b"/>
<path d="M3125.13 1283L3109.75 1267.62C3103.89 1261.76 3094.39 1261.77 3088.52 1267.64L2939.53 1416.63C2933.66 1422.5 2933.65 1432 2939.51 1437.86L2954.89 1453.24C2960.75 1459.1 2970.26 1459.09 2976.13 1453.22L3125.11 1304.24C3130.98 1298.37 3130.99 1288.86 3125.13 1283Z" fill="#26262b"/>
<path d="M3094.7 1447.08L3079.32 1431.7C3073.46 1425.84 3063.95 1425.85 3058.08 1431.72L3006.36 1483.45C3000.49 1489.32 3000.48 1498.83 3006.33 1504.68L3021.71 1520.06C3027.57 1525.92 3037.08 1525.91 3042.95 1520.04L3094.68 1468.31C3100.55 1462.44 3100.56 1452.94 3094.7 1447.08Z" fill="#26262b"/>
<path d="M3438.64 1266.68L3423.26 1251.3C3417.41 1245.44 3407.9 1245.45 3402.03 1251.32L3303.71 1349.64C3297.84 1355.51 3297.83 1365.02 3303.69 1370.88L3319.07 1386.26C3324.93 1392.11 3334.43 1392.1 3340.3 1386.23L3438.62 1287.92C3444.49 1282.05 3444.5 1272.54 3438.64 1266.68Z" fill="#26262b"/>
<path d="M3556.13 1282.84L3540.75 1267.46C3534.89 1261.6 3525.39 1261.61 3519.52 1267.48L3370.53 1416.46C3364.66 1422.33 3364.65 1431.84 3370.51 1437.7L3385.89 1453.08C3391.75 1458.94 3401.26 1458.93 3407.13 1453.06L3556.11 1304.08C3561.98 1298.2 3561.99 1288.7 3556.13 1282.84Z" fill="#26262b"/>
<path d="M3525.7 1446.92L3510.32 1431.54C3504.46 1425.68 3494.95 1425.69 3489.08 1431.56L3437.36 1483.29C3431.49 1489.16 3431.48 1498.66 3437.33 1504.52L3452.71 1519.9C3458.57 1525.76 3468.08 1525.75 3473.95 1519.88L3525.68 1468.15C3531.55 1462.28 3531.56 1452.77 3525.7 1446.92Z" fill="#26262b"/>
<path d="M3869.64 1266.52L3854.26 1251.14C3848.41 1245.28 3838.9 1245.29 3833.03 1251.16L3734.71 1349.48C3728.84 1355.35 3728.83 1364.86 3734.69 1370.71L3750.07 1386.09C3755.93 1391.95 3765.43 1391.94 3771.3 1386.07L3869.62 1287.75C3875.49 1281.88 3875.5 1272.38 3869.64 1266.52Z" fill="#26262b"/>
<path d="M3987.13 1282.68L3971.75 1267.3C3965.89 1261.44 3956.39 1261.45 3950.52 1267.32L3801.53 1416.3C3795.66 1422.17 3795.65 1431.68 3801.51 1437.54L3816.89 1452.92C3822.75 1458.78 3832.26 1458.77 3838.13 1452.9L3987.11 1303.91C3992.98 1298.04 3992.99 1288.54 3987.13 1282.68Z" fill="#26262b"/>
<path d="M3956.7 1446.75L3941.32 1431.37C3935.46 1425.52 3925.95 1425.53 3920.08 1431.4L3868.36 1483.12C3862.49 1488.99 3862.48 1498.5 3868.33 1504.36L3883.71 1519.74C3889.57 1525.6 3899.08 1525.59 3904.95 1519.72L3956.68 1467.99C3962.55 1462.12 3962.56 1452.61 3956.7 1446.75Z" fill="#26262b"/>
<path d="M-9.35675 841.68L-24.7367 826.3C-30.5947 820.442 -40.1023 820.452 -45.9725 826.322L-144.29 924.64C-150.16 930.51 -150.17 940.018 -144.312 945.876L-128.932 961.256C-123.074 967.114 -113.566 967.104 -107.697 961.234L-9.3788 862.916C-3.50856 857.046 -3.49871 847.538 -9.35675 841.68Z" fill="#26262b"/>
<path d="M108.132 857.84L92.7522 842.46C86.8938 836.601 77.3864 836.611 71.5162 842.482L-77.4665 991.464C-83.3362 997.334 -83.3465 1006.84 -77.4881 1012.7L-62.1083 1028.08C-56.2499 1033.94 -46.7427 1033.93 -40.873 1028.06L108.11 879.075C113.98 873.205 113.99 863.698 108.132 857.84Z" fill="#26262b"/>
<path d="M77.6992 1021.92L62.3194 1006.54C56.461 1000.68 46.9538 1000.69 41.0841 1006.56L-10.6434 1058.29C-16.5139 1064.16 -16.5245 1073.66 -10.6661 1079.52L4.71367 1094.9C10.5721 1100.76 20.0793 1100.75 25.9497 1094.88L77.6772 1043.15C83.547 1037.28 83.5576 1027.77 77.6992 1021.92Z" fill="#26262b"/>
<path d="M421.643 841.518L406.263 826.138C400.405 820.28 390.898 820.29 385.027 826.16L286.71 924.478C280.84 930.348 280.83 939.856 286.688 945.714L302.068 961.094C307.926 966.952 317.434 966.942 323.303 961.072L421.621 862.754C427.491 856.884 427.501 847.376 421.643 841.518Z" fill="#26262b"/>
<path d="M539.132 857.677L523.752 842.298C517.894 836.439 508.386 836.449 502.516 842.32L353.534 991.302C347.664 997.172 347.653 1006.68 353.512 1012.54L368.892 1027.92C374.75 1033.78 384.257 1033.77 390.127 1027.9L539.11 878.913C544.98 873.043 544.99 863.536 539.132 857.677Z" fill="#26262b"/>
<path d="M508.699 1021.75L493.319 1006.37C487.461 1000.52 477.954 1000.53 472.084 1006.4L420.357 1058.12C414.486 1063.99 414.475 1073.5 420.334 1079.36L435.714 1094.74C441.572 1100.6 451.079 1100.59 456.95 1094.72L508.677 1042.99C514.547 1037.12 514.558 1027.61 508.699 1021.75Z" fill="#26262b"/>
<path d="M852.643 841.356L837.263 825.976C831.405 820.118 821.898 820.128 816.027 825.998L717.71 924.316C711.84 930.186 711.83 939.694 717.688 945.552L733.068 960.932C738.926 966.79 748.434 966.78 754.303 960.91L852.621 862.592C858.491 856.722 858.501 847.214 852.643 841.356Z" fill="#26262b"/>
<path d="M970.132 857.515L954.752 842.136C948.894 836.277 939.386 836.287 933.516 842.157L784.534 991.14C778.664 997.01 778.654 1006.52 784.512 1012.38L799.892 1027.76C805.75 1033.61 815.257 1033.6 821.127 1027.73L970.11 878.751C975.98 872.881 975.99 863.374 970.132 857.515Z" fill="#26262b"/>
<path d="M939.699 1021.59L924.319 1006.21C918.461 1000.35 908.954 1000.36 903.084 1006.23L851.357 1057.96C845.486 1063.83 845.475 1073.34 851.334 1079.2L866.714 1094.58C872.572 1100.44 882.079 1100.43 887.95 1094.55L939.677 1042.83C945.547 1036.96 945.558 1027.45 939.699 1021.59Z" fill="#26262b"/>
<path d="M1283.64 841.194L1268.26 825.814C1262.41 819.956 1252.9 819.966 1247.03 825.836L1148.71 924.154C1142.84 930.024 1142.83 939.531 1148.69 945.39L1164.07 960.769C1169.93 966.628 1179.43 966.617 1185.3 960.748L1283.62 862.43C1289.49 856.56 1289.5 847.052 1283.64 841.194Z" fill="#26262b"/>
<path d="M1401.13 857.353L1385.75 841.973C1379.89 836.115 1370.39 836.125 1364.52 841.995L1215.53 990.978C1209.66 996.848 1209.65 1006.36 1215.51 1012.21L1230.89 1027.59C1236.75 1033.45 1246.26 1033.44 1252.13 1027.57L1401.11 878.589C1406.98 872.719 1406.99 863.212 1401.13 857.353Z" fill="#26262b"/>
<path d="M1370.7 1021.43L1355.32 1006.05C1349.46 1000.19 1339.95 1000.2 1334.08 1006.07L1282.36 1057.8C1276.49 1063.67 1276.48 1073.18 1282.33 1079.04L1297.71 1094.42C1303.57 1100.27 1313.08 1100.26 1318.95 1094.39L1370.68 1042.67C1376.55 1036.8 1376.56 1027.29 1370.7 1021.43Z" fill="#26262b"/>
<path d="M1714.64 841.032L1699.26 825.652C1693.41 819.794 1683.9 819.804 1678.03 825.674L1579.71 923.992C1573.84 929.862 1573.83 939.369 1579.69 945.227L1595.07 960.607C1600.93 966.465 1610.43 966.455 1616.3 960.586L1714.62 862.268C1720.49 856.398 1720.5 846.89 1714.64 841.032Z" fill="#26262b"/>
<path d="M1832.13 857.191L1816.75 841.811C1810.89 835.953 1801.39 835.963 1795.52 841.833L1646.53 990.816C1640.66 996.686 1640.65 1006.19 1646.51 1012.05L1661.89 1027.43C1667.75 1033.29 1677.26 1033.28 1683.13 1027.41L1832.11 878.427C1837.98 872.557 1837.99 863.049 1832.13 857.191Z" fill="#26262b"/>
<path d="M1801.7 1021.27L1786.32 1005.89C1780.46 1000.03 1770.95 1000.04 1765.08 1005.91L1713.36 1057.64C1707.49 1063.51 1707.48 1073.02 1713.33 1078.87L1728.71 1094.25C1734.57 1100.11 1744.08 1100.1 1749.95 1094.23L1801.68 1042.5C1807.55 1036.63 1807.56 1027.13 1801.7 1021.27Z" fill="#26262b"/>
<path d="M2145.64 840.87L2130.26 825.49C2124.41 819.632 2114.9 819.642 2109.03 825.512L2010.71 923.83C2004.84 929.7 2004.83 939.207 2010.69 945.065L2026.07 960.445C2031.93 966.303 2041.43 966.293 2047.3 960.424L2145.62 862.106C2151.49 856.235 2151.5 846.728 2145.64 840.87Z" fill="#26262b"/>
<path d="M2263.13 857.029L2247.75 841.649C2241.89 835.791 2232.39 835.801 2226.52 841.671L2077.53 990.654C2071.66 996.523 2071.65 1006.03 2077.51 1011.89L2092.89 1027.27C2098.75 1033.13 2108.26 1033.12 2114.13 1027.25L2263.11 878.265C2268.98 872.394 2268.99 862.887 2263.13 857.029Z" fill="#26262b"/>
<path d="M2232.7 1021.11L2217.32 1005.73C2211.46 999.867 2201.95 999.878 2196.08 1005.75L2144.36 1057.48C2138.49 1063.35 2138.48 1072.85 2144.33 1078.71L2159.71 1094.09C2165.57 1099.95 2175.08 1099.94 2180.95 1094.07L2232.68 1042.34C2238.55 1036.47 2238.56 1026.96 2232.7 1021.11Z" fill="#26262b"/>
<path d="M2576.64 840.708L2561.26 825.328C2555.41 819.47 2545.9 819.48 2540.03 825.35L2441.71 923.668C2435.84 929.537 2435.83 939.045 2441.69 944.903L2457.07 960.283C2462.93 966.141 2472.43 966.131 2478.3 960.261L2576.62 861.944C2582.49 856.073 2582.5 846.566 2576.64 840.708Z" fill="#26262b"/>
<path d="M2694.13 856.867L2678.75 841.487C2672.89 835.629 2663.39 835.639 2657.52 841.509L2508.53 990.492C2502.66 996.361 2502.65 1005.87 2508.51 1011.73L2523.89 1027.11C2529.75 1032.97 2539.26 1032.95 2545.13 1027.09L2694.11 878.103C2699.98 872.232 2699.99 862.725 2694.13 856.867Z" fill="#26262b"/>
<path d="M2663.7 1020.94L2648.32 1005.56C2642.46 999.705 2632.95 999.716 2627.08 1005.59L2575.36 1057.31C2569.49 1063.18 2569.48 1072.69 2575.33 1078.55L2590.71 1093.93C2596.57 1099.79 2606.08 1099.78 2611.95 1093.91L2663.68 1042.18C2669.55 1036.31 2669.56 1026.8 2663.7 1020.94Z" fill="#26262b"/>
<path d="M3007.64 840.546L2992.26 825.166C2986.41 819.308 2976.9 819.317 2971.03 825.188L2872.71 923.506C2866.84 929.375 2866.83 938.883 2872.69 944.741L2888.07 960.121C2893.93 965.979 2903.43 965.969 2909.3 960.099L3007.62 861.781C3013.49 855.911 3013.5 846.404 3007.64 840.546Z" fill="#26262b"/>
<path d="M3125.13 856.705L3109.75 841.325C3103.89 835.467 3094.39 835.477 3088.52 841.347L2939.53 990.33C2933.66 996.199 2933.65 1005.71 2939.51 1011.57L2954.89 1026.95C2960.75 1032.8 2970.26 1032.79 2976.13 1026.92L3125.11 877.94C3130.98 872.07 3130.99 862.563 3125.13 856.705Z" fill="#26262b"/>
<path d="M3094.7 1020.78L3079.32 1005.4C3073.46 999.543 3063.95 999.554 3058.08 1005.42L3006.36 1057.15C3000.49 1063.02 3000.48 1072.53 3006.33 1078.39L3021.71 1093.77C3027.57 1099.63 3037.08 1099.61 3042.95 1093.74L3094.68 1042.02C3100.55 1036.15 3100.56 1026.64 3094.7 1020.78Z" fill="#26262b"/>
<path d="M3438.64 840.383L3423.26 825.004C3417.41 819.146 3407.9 819.155 3402.03 825.026L3303.71 923.343C3297.84 929.213 3297.83 938.721 3303.69 944.579L3319.07 959.959C3324.93 965.817 3334.43 965.807 3340.3 959.937L3438.62 861.619C3444.49 855.749 3444.5 846.242 3438.64 840.383Z" fill="#26262b"/>
<path d="M3556.13 856.543L3540.75 841.163C3534.89 835.305 3525.39 835.315 3519.52 841.185L3370.53 990.167C3364.66 996.037 3364.65 1005.54 3370.51 1011.4L3385.89 1026.78C3391.75 1032.64 3401.26 1032.63 3407.13 1026.76L3556.11 877.778C3561.98 871.908 3561.99 862.401 3556.13 856.543Z" fill="#26262b"/>
<path d="M3525.7 1020.62L3510.32 1005.24C3504.46 999.381 3494.95 999.392 3489.08 1005.26L3437.36 1056.99C3431.49 1062.86 3431.48 1072.37 3437.33 1078.23L3452.71 1093.6C3458.57 1099.46 3468.08 1099.45 3473.95 1093.58L3525.68 1041.85C3531.55 1035.98 3531.56 1026.48 3525.7 1020.62Z" fill="#26262b"/>
<path d="M3869.64 840.221L3854.26 824.841C3848.41 818.983 3838.9 818.993 3833.03 824.863L3734.71 923.181C3728.84 929.051 3728.83 938.559 3734.69 944.417L3750.07 959.797C3755.93 965.655 3765.43 965.645 3771.3 959.775L3869.62 861.457C3875.49 855.587 3875.5 846.079 3869.64 840.221Z" fill="#26262b"/>
<path d="M3987.13 856.381L3971.75 841.001C3965.89 835.142 3956.39 835.152 3950.52 841.023L3801.53 990.005C3795.66 995.875 3795.65 1005.38 3801.51 1011.24L3816.89 1026.62C3822.75 1032.48 3832.26 1032.47 3838.13 1026.6L3987.11 877.616C3992.98 871.746 3992.99 862.239 3987.13 856.381Z" fill="#26262b"/>
<path d="M3956.7 1020.46L3941.32 1005.08C3935.46 999.219 3925.95 999.23 3920.08 1005.1L3868.36 1056.83C3862.49 1062.7 3862.48 1072.2 3868.33 1078.06L3883.71 1093.44C3889.57 1099.3 3899.08 1099.29 3904.95 1093.42L3956.68 1041.69C3962.55 1035.82 3962.56 1026.32 3956.7 1020.46Z" fill="#26262b"/>
<path d="M-9.35675 415.383L-24.7367 400.004C-30.5947 394.146 -40.1023 394.155 -45.9725 400.026L-144.29 498.343C-150.16 504.213 -150.17 513.721 -144.312 519.579L-128.932 534.959C-123.074 540.817 -113.566 540.807 -107.697 534.937L-9.3788 436.619C-3.50856 430.749 -3.49871 421.242 -9.35675 415.383Z" fill="#26262b"/>
<path d="M108.132 431.543L92.7522 416.163C86.8938 410.305 77.3864 410.315 71.5162 416.185L-77.4665 565.167C-83.3362 571.037 -83.3465 580.545 -77.4881 586.403L-62.1083 601.783C-56.2499 607.641 -46.7427 607.631 -40.873 601.761L108.11 452.778C113.98 446.908 113.99 437.401 108.132 431.543Z" fill="#26262b"/>
<path d="M77.6992 595.619L62.3194 580.24C56.461 574.381 46.9538 574.392 41.0841 580.261L-10.6434 631.989C-16.5139 637.859 -16.5245 647.367 -10.6661 653.225L4.71367 668.605C10.5721 674.463 20.0793 674.453 25.9497 668.582L77.6772 616.855C83.547 610.985 83.5576 601.478 77.6992 595.619Z" fill="#26262b"/>
<path d="M421.643 415.221L406.263 399.841C400.405 393.983 390.898 393.993 385.027 399.863L286.71 498.181C280.84 504.051 280.83 513.559 286.688 519.417L302.068 534.797C307.926 540.655 317.434 540.645 323.303 534.775L421.621 436.457C427.491 430.587 427.501 421.079 421.643 415.221Z" fill="#26262b"/>
<path d="M539.132 431.381L523.752 416.001C517.894 410.142 508.386 410.152 502.516 416.023L353.534 565.005C347.664 570.875 347.653 580.383 353.512 586.241L368.892 601.621C374.75 607.479 384.257 607.469 390.127 601.599L539.11 452.616C544.98 446.746 544.99 437.239 539.132 431.381Z" fill="#26262b"/>
<path d="M508.699 595.457L493.319 580.077C487.461 574.219 477.954 574.23 472.084 580.099L420.357 631.827C414.486 637.697 414.475 647.205 420.334 653.063L435.714 668.443C441.572 674.301 451.079 674.29 456.95 668.42L508.677 616.693C514.547 610.823 514.558 601.316 508.699 595.457Z" fill="#26262b"/>
<path d="M852.643 415.059L837.263 399.679C831.405 393.821 821.898 393.831 816.027 399.701L717.71 498.019C711.84 503.889 711.83 513.397 717.688 519.255L733.068 534.635C738.926 540.493 748.434 540.483 754.303 534.613L852.621 436.295C858.491 430.425 858.501 420.917 852.643 415.059Z" fill="#26262b"/>
<path d="M970.132 431.218L954.752 415.839C948.894 409.98 939.386 409.99 933.516 415.861L784.534 564.843C778.664 570.713 778.654 580.221 784.512 586.079L799.892 601.459C805.75 607.317 815.257 607.306 821.127 601.437L970.11 452.454C975.98 446.584 975.99 437.077 970.132 431.218Z" fill="#26262b"/>
<path d="M939.699 595.295L924.319 579.915C918.461 574.057 908.954 574.068 903.084 579.937L851.357 631.665C845.486 637.535 845.475 647.042 851.334 652.901L866.714 668.281C872.572 674.139 882.079 674.128 887.95 668.258L939.677 616.53C945.547 610.661 945.558 601.154 939.699 595.295Z" fill="#26262b"/>
<path d="M1283.64 414.897L1268.26 399.517C1262.41 393.659 1252.9 393.669 1247.03 399.539L1148.71 497.857C1142.84 503.727 1142.83 513.235 1148.69 519.093L1164.07 534.473C1169.93 540.331 1179.43 540.321 1185.3 534.451L1283.62 436.133C1289.49 430.263 1289.5 420.755 1283.64 414.897Z" fill="#26262b"/>
<path d="M1401.13 431.056L1385.75 415.677C1379.89 409.818 1370.39 409.828 1364.52 415.698L1215.53 564.681C1209.66 570.551 1209.65 580.058 1215.51 585.917L1230.89 601.297C1236.75 607.155 1246.26 607.144 1252.13 601.275L1401.11 452.292C1406.98 446.422 1406.99 436.915 1401.13 431.056Z" fill="#26262b"/>
<path d="M1370.7 595.133L1355.32 579.753C1349.46 573.895 1339.95 573.905 1334.08 579.775L1282.36 631.503C1276.49 637.373 1276.48 646.88 1282.33 652.739L1297.71 668.119C1303.57 673.977 1313.08 673.966 1318.95 668.096L1370.68 616.368C1376.55 610.499 1376.56 600.991 1370.7 595.133Z" fill="#26262b"/>
<path d="M1714.64 414.735L1699.26 399.355C1693.41 393.497 1683.9 393.507 1678.03 399.377L1579.71 497.695C1573.84 503.565 1573.83 513.073 1579.69 518.931L1595.07 534.31C1600.93 540.169 1610.43 540.158 1616.3 534.289L1714.62 435.971C1720.49 430.101 1720.5 420.593 1714.64 414.735Z" fill="#26262b"/>
<path d="M1832.13 430.894L1816.75 415.514C1810.89 409.656 1801.39 409.666 1795.52 415.536L1646.53 564.519C1640.66 570.389 1640.65 579.896 1646.51 585.755L1661.89 601.134C1667.75 606.993 1677.26 606.982 1683.13 601.112L1832.11 452.13C1837.98 446.26 1837.99 436.753 1832.13 430.894Z" fill="#26262b"/>
<path d="M1801.7 594.971L1786.32 579.591C1780.46 573.733 1770.95 573.743 1765.08 579.613L1713.36 631.341C1707.49 637.211 1707.48 646.718 1713.33 652.577L1728.71 667.956C1734.57 673.815 1744.08 673.804 1749.95 667.934L1801.68 616.206C1807.55 610.336 1807.56 600.829 1801.7 594.971Z" fill="#26262b"/>
<path d="M2145.64 414.573L2130.26 399.193C2124.41 393.335 2114.9 393.345 2109.03 399.215L2010.71 497.533C2004.84 503.403 2004.83 512.91 2010.69 518.768L2026.07 534.148C2031.93 540.006 2041.43 539.996 2047.3 534.127L2145.62 435.809C2151.49 429.939 2151.5 420.431 2145.64 414.573Z" fill="#26262b"/>
<path d="M2263.13 430.732L2247.75 415.352C2241.89 409.494 2232.39 409.504 2226.52 415.374L2077.53 564.357C2071.66 570.227 2071.65 579.734 2077.51 585.593L2092.89 600.972C2098.75 606.831 2108.26 606.82 2114.13 600.95L2263.11 451.968C2268.98 446.098 2268.99 436.591 2263.13 430.732Z" fill="#26262b"/>
<path d="M2232.7 594.809L2217.32 579.429C2211.46 573.571 2201.95 573.581 2196.08 579.451L2144.36 631.178C2138.49 637.049 2138.48 646.556 2144.33 652.414L2159.71 667.794C2165.57 673.653 2175.08 673.642 2180.95 667.772L2232.68 616.044C2238.55 610.174 2238.56 600.667 2232.7 594.809Z" fill="#26262b"/>
<path d="M2576.64 414.411L2561.26 399.031C2555.41 393.173 2545.9 393.183 2540.03 399.053L2441.71 497.371C2435.84 503.241 2435.83 512.748 2441.69 518.606L2457.07 533.986C2462.93 539.844 2472.43 539.834 2478.3 533.965L2576.62 435.647C2582.49 429.776 2582.5 420.269 2576.64 414.411Z" fill="#26262b"/>
<path d="M2694.13 430.57L2678.75 415.19C2672.89 409.332 2663.39 409.342 2657.52 415.212L2508.53 564.195C2502.66 570.065 2502.65 579.572 2508.51 585.43L2523.89 600.81C2529.75 606.669 2539.26 606.658 2545.13 600.788L2694.11 451.806C2699.98 445.935 2699.99 436.428 2694.13 430.57Z" fill="#26262b"/>
<path d="M2663.7 594.647L2648.32 579.267C2642.46 573.408 2632.95 573.419 2627.08 579.289L2575.36 631.016C2569.49 636.887 2569.48 646.394 2575.33 652.252L2590.71 667.632C2596.57 673.491 2606.08 673.48 2611.95 667.609L2663.68 615.882C2669.55 610.012 2669.56 600.505 2663.7 594.647Z" fill="#26262b"/>
<path d="M3007.64 414.249L2992.26 398.869C2986.41 393.011 2976.9 393.021 2971.03 398.891L2872.71 497.209C2866.84 503.078 2866.83 512.586 2872.69 518.444L2888.07 533.824C2893.93 539.682 2903.43 539.672 2909.3 533.802L3007.62 435.485C3013.49 429.614 3013.5 420.107 3007.64 414.249Z" fill="#26262b"/>
<path d="M3125.13 430.408L3109.75 415.028C3103.89 409.17 3094.39 409.18 3088.52 415.05L2939.53 564.033C2933.66 569.902 2933.65 579.41 2939.51 585.268L2954.89 600.648C2960.75 606.507 2970.26 606.496 2976.13 600.626L3125.11 451.644C3130.98 445.773 3130.99 436.266 3125.13 430.408Z" fill="#26262b"/>
<path d="M3094.7 594.485L3079.32 579.105C3073.46 573.246 3063.95 573.257 3058.08 579.127L3006.36 630.854C3000.49 636.725 3000.48 646.232 3006.33 652.09L3021.71 667.47C3027.57 673.328 3037.08 673.318 3042.95 667.447L3094.68 615.72C3100.55 609.85 3100.56 600.343 3094.7 594.485Z" fill="#26262b"/>
<path d="M3438.64 414.087L3423.26 398.707C3417.41 392.849 3407.9 392.858 3402.03 398.729L3303.71 497.047C3297.84 502.916 3297.83 512.424 3303.69 518.282L3319.07 533.662C3324.93 539.52 3334.43 539.51 3340.3 533.64L3438.62 435.322C3444.49 429.452 3444.5 419.945 3438.64 414.087Z" fill="#26262b"/>
<path d="M3556.13 430.246L3540.75 414.866C3534.89 409.008 3525.39 409.018 3519.52 414.888L3370.53 563.871C3364.66 569.74 3364.65 579.248 3370.51 585.106L3385.89 600.486C3391.75 606.344 3401.26 606.334 3407.13 600.464L3556.11 451.481C3561.98 445.611 3561.99 436.104 3556.13 430.246Z" fill="#26262b"/>
<path d="M3525.7 594.322L3510.32 578.943C3504.46 573.084 3494.95 573.095 3489.08 578.965L3437.36 630.692C3431.49 636.563 3431.48 646.07 3437.33 651.928L3452.71 667.308C3458.57 673.166 3468.08 673.156 3473.95 667.285L3525.68 615.558C3531.55 609.688 3531.56 600.181 3525.7 594.322Z" fill="#26262b"/>
<path d="M3869.64 413.924L3854.26 398.545C3848.41 392.687 3838.9 392.696 3833.03 398.567L3734.71 496.884C3728.84 502.754 3728.83 512.262 3734.69 518.12L3750.07 533.5C3755.93 539.358 3765.43 539.348 3771.3 533.478L3869.62 435.16C3875.49 429.29 3875.5 419.783 3869.64 413.924Z" fill="#26262b"/>
<path d="M3987.13 430.084L3971.75 414.704C3965.89 408.846 3956.39 408.856 3950.52 414.726L3801.53 563.708C3795.66 569.578 3795.65 579.086 3801.51 584.944L3816.89 600.324C3822.75 606.182 3832.26 606.172 3838.13 600.302L3987.11 451.319C3992.98 445.449 3992.99 435.942 3987.13 430.084Z" fill="#26262b"/>
<path d="M3956.7 594.16L3941.32 578.781C3935.46 572.922 3925.95 572.933 3920.08 578.802L3868.36 630.53C3862.49 636.4 3862.48 645.908 3868.33 651.766L3883.71 667.146C3889.57 673.004 3899.08 672.994 3904.95 667.123L3956.68 615.396C3962.55 609.526 3962.56 600.019 3956.7 594.16Z" fill="#26262b"/>
<path d="M-9.35675 -10.9134L-24.7367 -26.2933C-30.5947 -32.1514 -40.1023 -32.1415 -45.9725 -26.2713L-144.29 72.0466C-150.16 77.9163 -150.17 87.4241 -144.312 93.2821L-128.932 108.662C-123.074 114.52 -113.566 114.51 -107.697 108.64L-9.3788 10.3224C-3.50856 4.4522 -3.49871 -5.05536 -9.35675 -10.9134Z" fill="#26262b"/>
<path d="M108.132 5.24581L92.7522 -10.134C86.8938 -15.9924 77.3864 -15.9823 71.5162 -10.1121L-77.4665 138.871C-83.3362 144.74 -83.3465 154.248 -77.4881 160.106L-62.1083 175.486C-56.2499 181.344 -46.7427 181.334 -40.873 175.464L108.11 26.4814C113.98 20.6112 113.99 11.1042 108.132 5.24581Z" fill="#26262b"/>
<path d="M77.6992 169.322L62.3194 153.943C56.461 148.084 46.9538 148.095 41.0841 153.965L-10.6434 205.692C-16.5139 211.563 -16.5245 221.07 -10.6661 226.928L4.71367 242.308C10.5721 248.166 20.0793 248.156 25.9497 242.285L77.6772 190.558C83.547 184.688 83.5576 175.181 77.6992 169.322Z" fill="#26262b"/>
<path d="M421.643 -11.0755L406.263 -26.4554C400.405 -32.3135 390.898 -32.3036 385.027 -26.4334L286.71 71.8845C280.84 77.7542 280.83 87.262 286.688 93.12L302.068 108.5C307.926 114.358 317.434 114.348 323.303 108.478L421.621 10.1603C427.491 4.29009 427.501 -5.21747 421.643 -11.0755Z" fill="#26262b"/>
<path d="M539.132 5.0837L523.752 -10.2961C517.894 -16.1545 508.386 -16.1444 502.516 -10.2742L353.534 138.708C347.664 144.578 347.653 154.086 353.512 159.944L368.892 175.324C374.75 181.182 384.257 181.172 390.127 175.302L539.11 26.3193C544.98 20.4491 544.99 10.9421 539.132 5.0837Z" fill="#26262b"/>
<path d="M508.699 169.16L493.319 153.781C487.461 147.922 477.954 147.933 472.084 153.803L420.357 205.53C414.486 211.4 414.475 220.908 420.334 226.766L435.714 242.146C441.572 248.004 451.079 247.994 456.95 242.123L508.677 190.396C514.547 184.526 514.558 175.019 508.699 169.16Z" fill="#26262b"/>
<path d="M852.643 -11.2376L837.263 -26.6176C831.405 -32.4756 821.898 -32.4657 816.027 -26.5955L717.71 71.7224C711.84 77.5921 711.83 87.0999 717.688 92.9579L733.068 108.338C738.926 114.196 748.434 114.186 754.303 108.316L852.621 9.99822C858.491 4.12798 858.501 -5.37958 852.643 -11.2376Z" fill="#26262b"/>
<path d="M970.132 4.92159L954.752 -10.4582C948.894 -16.3166 939.386 -16.3065 933.516 -10.4363L784.534 138.546C778.664 144.416 778.654 153.924 784.512 159.782L799.892 175.162C805.75 181.02 815.257 181.01 821.127 175.14L970.11 26.1572C975.98 20.287 975.99 10.78 970.132 4.92159Z" fill="#26262b"/>
<path d="M939.699 168.998L924.319 153.618C918.461 147.76 908.954 147.771 903.084 153.64L851.357 205.368C845.486 211.238 845.475 220.746 851.334 226.604L866.714 241.984C872.572 247.842 882.079 247.832 887.95 241.961L939.677 190.234C945.547 184.364 945.558 174.857 939.699 168.998Z" fill="#26262b"/>
<path d="M1283.64 -11.3997L1268.26 -26.7797C1262.41 -32.6377 1252.9 -32.6279 1247.03 -26.7576L1148.71 71.5602C1142.84 77.43 1142.83 86.9378 1148.69 92.7958L1164.07 108.176C1169.93 114.034 1179.43 114.024 1185.3 108.154L1283.62 9.83611C1289.49 3.96587 1289.5 -5.54169 1283.64 -11.3997Z" fill="#26262b"/>
<path d="M1401.13 4.75948L1385.75 -10.6203C1379.89 -16.4787 1370.39 -16.4686 1364.52 -10.5984L1215.53 138.384C1209.66 144.254 1209.65 153.762 1215.51 159.62L1230.89 175C1236.75 180.858 1246.26 180.847 1252.13 174.978L1401.11 25.9951C1406.98 20.1249 1406.99 10.6179 1401.13 4.75948Z" fill="#26262b"/>
<path d="M1370.7 168.836L1355.32 153.456C1349.46 147.598 1339.95 147.609 1334.08 153.478L1282.36 205.206C1276.49 211.076 1276.48 220.583 1282.33 226.442L1297.71 241.822C1303.57 247.68 1313.08 247.669 1318.95 241.799L1370.68 190.071C1376.55 184.202 1376.56 174.695 1370.7 168.836Z" fill="#26262b"/>
<path d="M1714.64 -11.5618L1699.26 -26.9418C1693.41 -32.7998 1683.9 -32.79 1678.03 -26.9197L1579.71 71.3981C1573.84 77.2679 1573.83 86.7757 1579.69 92.6337L1595.07 108.014C1600.93 113.872 1610.43 113.862 1616.3 107.992L1714.62 9.674C1720.49 3.80377 1720.5 -5.7038 1714.64 -11.5618Z" fill="#26262b"/>
<path d="M1832.13 4.59737L1816.75 -10.7824C1810.89 -16.6408 1801.39 -16.6307 1795.52 -10.7605L1646.53 138.222C1640.66 144.092 1640.65 153.599 1646.51 159.458L1661.89 174.838C1667.75 180.696 1677.26 180.685 1683.13 174.816L1832.11 25.833C1837.98 19.9628 1837.99 10.4558 1832.13 4.59737Z" fill="#26262b"/>
<path d="M1801.7 168.674L1786.32 153.294C1780.46 147.436 1770.95 147.446 1765.08 153.316L1713.36 205.044C1707.49 210.914 1707.48 220.421 1713.33 226.28L1728.71 241.66C1734.57 247.518 1744.08 247.507 1749.95 241.637L1801.68 189.909C1807.55 184.04 1807.56 174.532 1801.7 168.674Z" fill="#26262b"/>
<path d="M2145.64 -11.7239L2130.26 -27.1039C2124.41 -32.9619 2114.9 -32.9521 2109.03 -27.0818L2010.71 71.236C2004.84 77.1058 2004.83 86.6135 2010.69 92.4716L2026.07 107.852C2031.93 113.71 2041.43 113.699 2047.3 107.83L2145.62 9.51189C2151.49 3.64166 2151.5 -5.86591 2145.64 -11.7239Z" fill="#26262b"/>
<path d="M2263.13 4.43526L2247.75 -10.9445C2241.89 -16.8029 2232.39 -16.7928 2226.52 -10.9226L2077.53 138.06C2071.66 143.93 2071.65 153.437 2077.51 159.296L2092.89 174.676C2098.75 180.534 2108.26 180.523 2114.13 174.654L2263.11 25.6709C2268.98 19.8007 2268.99 10.2937 2263.13 4.43526Z" fill="#26262b"/>
<path d="M2232.7 168.512L2217.32 153.132C2211.46 147.274 2201.95 147.284 2196.08 153.154L2144.36 204.882C2138.49 210.752 2138.48 220.259 2144.33 226.118L2159.71 241.497C2165.57 247.356 2175.08 247.345 2180.95 241.475L2232.68 189.747C2238.55 183.877 2238.56 174.37 2232.7 168.512Z" fill="#26262b"/>
<path d="M2576.64 -11.8861L2561.26 -27.266C2555.41 -33.124 2545.9 -33.1142 2540.03 -27.2439L2441.71 71.0739C2435.84 76.9437 2435.83 86.4514 2441.69 92.3095L2457.07 107.689C2462.93 113.547 2472.43 113.537 2478.3 107.668L2576.62 9.34978C2582.49 3.47955 2582.5 -6.02802 2576.64 -11.8861Z" fill="#26262b"/>
<path d="M2694.13 4.27315L2678.75 -11.1066C2672.89 -16.965 2663.39 -16.9549 2657.52 -11.0847L2508.53 137.898C2502.66 143.768 2502.65 153.275 2508.51 159.134L2523.89 174.513C2529.75 180.372 2539.26 180.361 2545.13 174.491L2694.11 25.5088C2699.98 19.6386 2699.99 10.1315 2694.13 4.27315Z" fill="#26262b"/>
<path d="M2663.7 168.35L2648.32 152.97C2642.46 147.112 2632.95 147.122 2627.08 152.992L2575.36 204.719C2569.49 210.59 2569.48 220.097 2575.33 225.956L2590.71 241.335C2596.57 247.194 2606.08 247.183 2611.95 241.313L2663.68 189.585C2669.55 183.715 2669.56 174.208 2663.7 168.35Z" fill="#26262b"/>
<path d="M3007.64 -12.0482L2992.26 -27.4281C2986.41 -33.2861 2976.9 -33.2763 2971.03 -27.406L2872.71 70.9118C2866.84 76.7815 2866.83 86.2893 2872.69 92.1474L2888.07 107.527C2893.93 113.385 2903.43 113.375 2909.3 107.506L3007.62 9.18768C3013.49 3.31744 3013.5 -6.19013 3007.64 -12.0482Z" fill="#26262b"/>
<path d="M3125.13 4.11104L3109.75 -11.2687C3103.89 -17.1271 3094.39 -17.1171 3088.52 -11.2468L2939.53 137.736C2933.66 143.606 2933.65 153.113 2939.51 158.971L2954.89 174.351C2960.75 180.21 2970.26 180.199 2976.13 174.329L3125.11 25.3467C3130.98 19.4765 3130.99 9.96944 3125.13 4.11104Z" fill="#26262b"/>
<path d="M3094.7 168.188L3079.32 152.808C3073.46 146.949 3063.95 146.96 3058.08 152.83L3006.36 204.557C3000.49 210.428 3000.48 219.935 3006.33 225.793L3021.71 241.173C3027.57 247.032 3037.08 247.021 3042.95 241.151L3094.68 189.423C3100.55 183.553 3100.56 174.046 3094.7 168.188Z" fill="#26262b"/>
<path d="M3438.64 -12.2103L3423.26 -27.5902C3417.41 -33.4482 3407.9 -33.4384 3402.03 -27.5682L3303.71 70.7497C3297.84 76.6194 3297.83 86.1272 3303.69 91.9853L3319.07 107.365C3324.93 113.223 3334.43 113.213 3340.3 107.343L3438.62 9.02557C3444.49 3.15533 3444.5 -6.35224 3438.64 -12.2103Z" fill="#26262b"/>
<path d="M3556.13 3.94893L3540.75 -11.4309C3534.89 -17.2893 3525.39 -17.2792 3519.52 -11.409L3370.53 137.574C3364.66 143.443 3364.65 152.951 3370.51 158.809L3385.89 174.189C3391.75 180.048 3401.26 180.037 3407.13 174.167L3556.11 25.1846C3561.98 19.3143 3561.99 9.80733 3556.13 3.94893Z" fill="#26262b"/>
<path d="M3525.7 168.026L3510.32 152.646C3504.46 146.787 3494.95 146.798 3489.08 152.668L3437.36 204.395C3431.49 210.266 3431.48 219.773 3437.33 225.631L3452.71 241.011C3458.57 246.87 3468.08 246.859 3473.95 240.988L3525.68 189.261C3531.55 183.391 3531.56 173.884 3525.7 168.026Z" fill="#26262b"/>
<path d="M3869.64 -12.3724L3854.26 -27.7523C3848.41 -33.6104 3838.9 -33.6005 3833.03 -27.7303L3734.71 70.5876C3728.84 76.4573 3728.83 85.9651 3734.69 91.8231L3750.07 107.203C3755.93 113.061 3765.43 113.051 3771.3 107.181L3869.62 8.86346C3875.49 2.99322 3875.5 -6.51434 3869.64 -12.3724Z" fill="#26262b"/>
<path d="M3987.13 3.78682L3971.75 -11.593C3965.89 -17.4514 3956.39 -17.4413 3950.52 -11.5711L3801.53 137.412C3795.66 143.281 3795.65 152.789 3801.51 158.647L3816.89 174.027C3822.75 179.885 3832.26 179.875 3838.13 174.005L3987.11 25.0224C3992.98 19.1522 3992.99 9.64522 3987.13 3.78682Z" fill="#26262b"/>
<path d="M3956.7 167.863L3941.32 152.484C3935.46 146.625 3925.95 146.636 3920.08 152.506L3868.36 204.233C3862.49 210.104 3862.48 219.611 3868.33 225.469L3883.71 240.849C3889.57 246.707 3899.08 246.697 3904.95 240.826L3956.68 189.099C3962.55 183.229 3962.56 173.722 3956.7 167.863Z" fill="#26262b"/>
</g>
<defs>
<clipPath id="clip0_753_360">
<rect width="3840" height="2160" fill="white"/>
</clipPath>
</defs>
</svg>
