<?xml version="1.0" standalone="no"?>
<!DOCTYPE svg PUBLIC "-//W3C//DTD SVG 20010904//EN"
 "http://www.w3.org/TR/2001/REC-SVG-20010904/DTD/svg10.dtd">
<svg version="1.0" xmlns="http://www.w3.org/2000/svg"
 width="700.000000pt" height="700.000000pt" viewBox="0 0 700.000000 700.000000"
 preserveAspectRatio="xMidYMid meet">
<metadata>
Created by potrace 1.14, written by Peter Selinger 2001-2017
</metadata>
<g transform="translate(0.000000,700.000000) scale(0.100000,-0.100000)"
fill="#000000" stroke="none">
<path d="M3329 6980 c-241 -59 -434 -224 -526 -450 -58 -145 -55 48 -54 -3030
0 -3049 -3 -2879 50 -3021 82 -217 282 -395 511 -454 85 -22 220 -30 295 -16
103 18 116 21 176 46 238 96 413 313 459 566 9 47 12 789 12 2879 0 1548 -3
2830 -6 2848 -3 17 -8 45 -11 62 -10 55 -52 158 -93 227 -36 62 -126 164 -178
203 -140 106 -270 151 -449 155 -81 2 -130 -2 -186 -15z"/>
<path d="M598 4899 c-178 -36 -342 -143 -460 -299 -47 -62 -97 -177 -125 -285
-11 -44 -14 -3619 -3 -3685 50 -294 258 -521 555 -607 72 -21 259 -25 337 -7
294 66 506 269 580 557 l22 82 0 1790 c0 985 -3 1811 -7 1836 -15 97 -68 227
-127 314 -71 104 -215 220 -328 264 -141 56 -298 70 -444 40z"/>
<path d="M6149 2996 c-2 -2 -22 -6 -44 -9 -95 -13 -212 -66 -310 -139 -136
-103 -233 -249 -277 -418 -22 -84 -22 -91 -22 -930 0 -829 1 -847 21 -927 86
-329 363 -557 693 -569 113 -4 189 6 285 38 196 67 365 226 448 423 55 132 56
148 56 1045 -1 877 -2 905 -49 1007 -11 24 -20 47 -20 52 0 14 -95 154 -131
192 -100 106 -245 189 -381 219 -66 15 -258 26 -269 16z"/>
</g>
</svg>
