<svg width="1110" height="1110" viewBox="0 0 1110 1110" fill="none" xmlns="http://www.w3.org/2000/svg">
<rect width="1110" height="1110" rx="555" fill="#18181C"/>
<path d="M754.262 372.367C717.613 355.567 678.313 343.189 637.223 336.1C636.474 335.963 635.727 336.305 635.341 336.989C630.287 345.97 624.688 357.686 620.768 366.896C576.572 360.285 532.603 360.285 489.314 366.896C485.393 357.482 479.591 345.97 474.514 336.989C474.128 336.328 473.381 335.986 472.632 336.1C431.565 343.166 392.264 355.544 355.593 372.367C355.276 372.503 355.004 372.731 354.823 373.028C280.279 484.289 259.858 592.816 269.876 699.997C269.922 700.521 270.216 701.023 270.624 701.341C319.806 737.425 367.447 759.331 414.204 773.851C414.952 774.079 415.745 773.806 416.221 773.19C427.281 758.101 437.14 742.19 445.594 725.458C446.093 724.478 445.616 723.315 444.597 722.928C428.958 717.001 414.068 709.775 399.744 701.569C398.611 700.908 398.52 699.289 399.562 698.514C402.576 696.258 405.592 693.91 408.47 691.539C408.99 691.106 409.716 691.015 410.328 691.288C504.431 734.211 606.308 734.211 699.3 691.288C699.912 690.992 700.638 691.084 701.181 691.517C704.06 693.887 707.075 696.258 710.112 698.514C711.154 699.289 711.086 700.908 709.953 701.569C695.629 709.935 680.738 717.001 665.077 722.905C664.057 723.293 663.604 724.478 664.103 725.458C672.737 742.166 682.597 758.077 693.453 773.168C693.906 773.806 694.722 774.079 695.47 773.851C742.453 759.331 790.094 737.425 839.276 701.341C839.707 701.023 839.979 700.544 840.024 700.019C852.013 576.106 819.943 468.47 755.009 373.05C754.851 372.731 754.579 372.503 754.262 372.367ZM459.646 634.735C431.315 634.735 407.971 608.749 407.971 576.836C407.971 544.923 430.862 518.937 459.646 518.937C488.656 518.937 511.775 545.151 511.321 576.836C511.321 608.749 488.43 634.735 459.646 634.735ZM650.708 634.735C622.377 634.735 599.033 608.749 599.033 576.836C599.033 544.923 621.924 518.937 650.708 518.937C679.718 518.937 702.836 545.151 702.383 576.836C702.383 608.749 679.718 634.735 650.708 634.735Z" fill="white"/>
</svg>
