<svg width="1110" height="1110" viewBox="0 0 1110 1110" fill="none" xmlns="http://www.w3.org/2000/svg">
<rect width="1110" height="1110" rx="555" fill="#18181C"/>
<path fill-rule="evenodd" clip-rule="evenodd" d="M555.255 252.305C384.895 252.305 247.176 391.039 247.176 562.673C247.176 699.869 335.417 816.003 457.832 857.106C473.137 860.196 478.743 850.428 478.743 842.211C478.743 835.016 478.238 810.352 478.238 784.655C392.538 803.157 374.692 747.657 374.692 747.657C360.919 711.687 340.513 702.442 340.513 702.442C312.463 683.429 342.556 683.429 342.556 683.429C373.67 685.485 389.997 715.288 389.997 715.288C417.536 762.558 461.912 749.202 479.765 740.979C482.312 720.938 490.479 707.064 499.15 699.358C430.797 692.163 358.882 665.444 358.882 546.227C358.882 512.312 371.116 484.565 390.501 462.986C387.443 455.28 376.729 423.415 393.566 380.767C393.566 380.767 419.579 372.544 478.232 412.625C503.344 405.831 529.241 402.375 555.255 402.346C581.268 402.346 607.785 405.947 632.272 412.625C690.931 372.544 716.944 380.767 716.944 380.767C733.781 423.415 723.061 455.28 720.003 462.986C739.898 484.565 751.628 512.312 751.628 546.227C751.628 665.444 679.713 691.646 610.85 699.358C622.075 709.12 631.761 727.616 631.761 756.908C631.761 798.528 631.256 831.932 631.256 842.205C631.256 850.428 636.869 860.196 652.168 857.112C774.582 815.996 862.824 699.869 862.824 562.673C863.328 391.039 725.104 252.305 555.255 252.305Z" fill="white"/>
</svg>
