<svg width="1110" height="1110" viewBox="0 0 1110 1110" fill="none" xmlns="http://www.w3.org/2000/svg">
<rect width="1110" height="1110" rx="555" fill="#18181C"/>
<path d="M679.894 246H430.106C328.589 246 246 328.589 246 430.106V679.894C246 781.411 328.589 864 430.106 864H679.894C781.411 864 864 781.411 864 679.894V430.106C863.999 328.589 781.41 246 679.894 246ZM801.829 679.894C801.829 747.237 747.237 801.829 679.894 801.829H430.106C362.763 801.829 308.171 747.237 308.171 679.894V430.106C308.171 362.762 362.763 308.171 430.106 308.171H679.894C747.237 308.171 801.829 362.762 801.829 430.106V679.894Z" fill="white"/>
<path d="M555 395.163C466.866 395.163 395.163 466.866 395.163 554.999C395.163 643.132 466.866 714.836 555 714.836C643.134 714.836 714.837 643.133 714.837 554.999C714.837 466.865 643.134 395.163 555 395.163ZM555 652.666C501.06 652.666 457.334 608.94 457.334 555C457.334 501.06 501.061 457.334 555 457.334C608.94 457.334 652.666 501.06 652.666 555C652.666 608.939 608.939 652.666 555 652.666Z" fill="white"/>
<path d="M715.142 434.665C736.294 434.665 753.441 417.517 753.441 396.366C753.441 375.214 736.294 358.066 715.142 358.066C693.99 358.066 676.843 375.214 676.843 396.366C676.843 417.517 693.99 434.665 715.142 434.665Z" fill="white"/>
</svg>
