<svg width="1110" height="1110" viewBox="0 0 1110 1110" fill="none" xmlns="http://www.w3.org/2000/svg">
<rect width="1110" height="1110" rx="555" fill="#18181C"/>
<path fill-rule="evenodd" clip-rule="evenodd" d="M657.489 646.724C631.737 646.724 610.098 625.819 610.098 600.043C610.098 574.267 631.737 552.672 657.489 552.672C683.24 552.672 704.125 574.267 704.125 600.043C704.125 625.819 683.24 646.724 657.489 646.724ZM668.427 737.328C644.441 761.315 607.45 772.974 555.345 772.974C555.237 772.974 555.108 772.953 554.978 772.953C554.871 772.953 554.742 772.974 554.612 772.974C502.507 772.974 465.538 761.315 441.573 737.328C434.21 729.957 434.21 718.039 441.573 710.69C448.916 703.341 460.822 703.341 468.186 710.69C484.722 727.241 512.993 735.302 554.612 735.302C554.742 735.302 554.871 735.323 554.978 735.323C555.108 735.323 555.237 735.302 555.345 735.302C596.964 735.302 625.256 727.241 641.814 710.69C649.178 703.319 661.084 703.341 668.427 710.69C675.769 718.06 675.769 729.978 668.427 737.328ZM405.875 600.043C405.875 574.289 427.47 552.672 453.2 552.672C478.952 552.672 499.837 574.289 499.837 600.043C499.837 625.819 478.952 646.724 453.2 646.724C427.47 646.724 405.875 625.819 405.875 600.043ZM784.609 302.672C802.05 302.672 816.239 316.875 816.239 334.31C816.239 351.767 802.05 365.97 784.609 365.97C767.169 365.97 752.98 351.767 752.98 334.31C752.98 316.875 767.169 302.672 784.609 302.672ZM899.5 548.772C899.5 503.06 862.359 465.884 816.691 465.884C796.925 465.884 778.774 472.866 764.521 484.483C714.03 452.716 649.953 433.578 581.268 429.526L617.096 316.142L715.559 339.353C718.142 375.237 748.114 403.642 784.609 403.642C822.784 403.642 853.854 372.543 853.854 334.31C853.854 296.099 822.784 265 784.609 265C757.91 265 734.7 280.216 723.138 302.435L608.72 275.474C599.139 273.211 589.45 278.728 586.479 288.125L541.995 428.858C467.992 430.668 398.425 449.871 344.231 483.491C330.171 472.478 312.494 465.884 293.309 465.884C247.641 465.884 210.5 503.06 210.5 548.772C210.5 577.026 224.711 602.004 246.35 616.961C245.445 623.534 244.972 630.151 244.972 636.853C244.972 693.987 278.151 747.134 338.396 786.487C396.142 824.224 472.578 845 553.6 845C634.623 845 711.059 824.224 768.805 786.487C829.05 747.134 862.229 693.987 862.229 636.853C862.229 630.754 861.82 624.698 861.067 618.685C884.148 603.966 899.5 578.125 899.5 548.772Z" fill="white"/>
</svg>
