<svg width="1110" height="1110" viewBox="0 0 1110 1110" fill="none" xmlns="http://www.w3.org/2000/svg">
<rect width="1110" height="1110" rx="555" fill="#18181C"/>
<path d="M809.877 424.202C810.267 429.855 810.267 435.507 810.267 441.212C810.267 615.031 677.979 815.497 436.084 815.497V815.393C364.627 815.497 294.655 795.023 234.5 756.42C244.89 757.67 255.333 758.295 265.801 758.321C325.019 758.374 382.543 738.499 429.131 701.901C372.856 700.833 323.508 664.132 306.269 610.551C325.982 614.354 346.294 613.572 365.643 608.284C304.29 595.885 260.15 541.966 260.15 479.346C260.15 478.773 260.15 478.226 260.15 477.679C278.431 487.864 298.899 493.516 319.836 494.142C262.051 455.512 244.239 378.618 279.134 318.499C345.904 400.681 444.417 450.641 550.169 455.929C539.571 410.241 554.05 362.364 588.215 330.247C641.183 280.443 724.488 282.996 774.279 335.951C803.731 330.143 831.959 319.333 857.792 304.016C847.975 334.467 827.428 360.332 799.981 376.769C826.048 373.695 851.516 366.714 875.5 356.06C857.844 382.525 835.605 405.578 809.877 424.202Z" fill="white"/>
</svg>
