<svg xmlns="http://www.w3.org/2000/svg" viewBox="0 0 187.086 119.393">
  <g>
    <polygon points="187.086,0 187.086,119.393 0,119.393 0,0 187.086,0  " />
    <path fill="#9CA3AF"
      d="M181.088,36.208c-0.692-2.955-1.712-5.783-3.017-8.446   c-4.475-7.138-12.398-11.898-21.446-11.929c-14.028-0.048-25.439,11.287-25.487,25.315c-0.005,1.45,0.119,2.869,0.348,4.253   c0.006-4.193,2.478-7.807,6.041-9.474c3.342-1.863,7.153-3.003,11.235-3.193c14.097-0.657,26.057,10.239,26.714,24.336   c0.309,6.63-1.938,12.787-5.872,17.517c5.596-5.305,9.665-12.203,11.484-19.968v30.214h-31.253   c3.437-0.684,6.716-1.805,9.775-3.303c7.139-4.475,11.899-12.398,11.93-21.446c0.048-14.029-11.287-25.44-25.315-25.488   c-1.449-0.005-2.868,0.119-4.253,0.348c4.193,0.006,7.807,2.477,9.474,6.041c1.863,3.342,3.003,7.154,3.193,11.235   c0.657,14.097-10.239,26.056-24.336,26.714c-6.63,0.309-12.786-1.939-17.517-5.873c5.604,5.912,12.989,10.119,21.293,11.771h-32.11   V49.446c0.483,4.846,1.824,9.439,3.874,13.623c4.475,7.139,12.398,11.898,21.446,11.93c14.028,0.047,25.439-11.287,25.487-25.315   c0.005-1.45-0.119-2.869-0.348-4.253c-0.006,4.193-2.477,7.807-6.041,9.474c-3.343,1.863-7.154,3.003-11.235,3.193   c-14.097,0.657-26.057-10.239-26.714-24.335c-0.309-6.63,1.938-12.787,5.872-17.517c-6.806,6.452-11.354,15.26-12.342,25.118V5.427   h35.958c-4.846,0.483-9.439,1.824-13.624,3.873c-7.138,4.476-11.898,12.399-11.929,21.447   c-0.048,14.029,11.286,25.44,25.315,25.487c1.449,0.005,2.868-0.119,4.253-0.348c-4.193-0.006-7.807-2.477-9.474-6.041   c-1.863-3.342-3.003-7.154-3.193-11.235c-0.657-14.097,10.239-26.058,24.336-26.714c6.63-0.309,12.786,1.938,17.517,5.872   c-6.452-6.806-15.26-11.354-25.118-12.341h35.078V36.208L181.088,36.208z" />
    <polygon fill="#9CA3AF" points="79.977,5.427 79.977,56.555 48.18,56.555 78.212,5.427    79.977,5.427  " />
    <polygon fill="#9CA3AF" points="79.977,78.547 79.977,84.833 31.569,84.833 35.26,78.547    79.977,78.547  " />
    <polygon fill="#9CA3AF" points="51.091,5.427 5.999,84.542 5.999,5.427 51.091,5.427  " />
    <polygon fill="#9CA3AF" points="5.999,113.965 5.999,90.258 181.088,90.258    181.088,113.965 5.999,113.965  " />
    <path
      d="M141.958,54.241c4.875,0,8.826-3.952,8.826-8.826s-3.951-8.826-8.826-8.826   c-4.874,0-8.826,3.951-8.826,8.826S137.083,54.241,141.958,54.241L141.958,54.241z" />
    <polygon
      points="17.308,107.713 16.057,110.6 9.02,110.6 16.632,93.811 26.916,93.811    34.629,110.6 27.728,110.6 26.408,107.713 17.308,107.713  " />
    <polygon fill="#9CA3AF" points="25.055,104.444 18.763,104.444 21.841,97.17    21.909,97.17 25.055,104.444  " />
    <polygon
      points="46.554,110.6 39.788,110.6 39.788,97.708 33.293,97.708 33.293,93.811    53.388,93.811 53.388,97.708 46.554,97.708 46.554,110.6  " />
    <polygon
      points="61.439,106.706 72.028,106.706 72.028,110.6 54.673,110.6 54.673,93.811    61.439,93.811 61.439,106.706  " />
    <polygon
      points="80.563,107.713 79.312,110.6 72.275,110.6 79.887,93.811 90.171,93.811    97.884,110.6 90.983,110.6 89.664,107.713 80.563,107.713  " />
    <polygon fill="#9CA3AF" points="88.311,104.444 82.018,104.444 85.097,97.17    85.165,97.17 88.311,104.444  " />
    <polygon
      points="105.343,110.6 98.578,110.6 98.578,93.811 110.012,93.811    117.286,106.706 117.556,106.706 117.15,93.811 123.916,93.811 123.916,110.6 112.38,110.6 105.208,97.708 104.938,97.708    105.343,110.6  " />
    <polygon
      points="138.308,110.6 131.542,110.6 131.542,97.708 125.047,97.708    125.047,93.811 145.142,93.811 145.142,97.708 138.308,97.708 138.308,110.6  " />
    <polygon points="153.329,110.6 146.563,110.6 146.563,93.811 153.329,93.811    153.329,110.6  " />
    <path
      d="M178.261,104.243v0.492c0,1.836-0.034,3.492-2.334,4.768   c-2.301,1.254-5.108,1.232-8.052,1.232c-6.901,0-11.941-0.225-11.941-6.357v-4.342c0-5.553,4.499-6.357,11.941-6.357   c6.969,0,10.217,0.469,10.352,5.506v0.648h-6.969v-0.648c-0.236-1.5-1.827-1.611-4.127-1.611c-3.856,0-4.229,0.783-4.229,3.178   v2.619c0,2.508,0.169,3.471,4.229,3.471c2.808,0,4.161-0.135,4.161-2.105v-0.492H178.261L178.261,104.243z" />
    <path
      d="M173.77,9.612c0-1.507,1.214-2.721,2.72-2.721c1.5,0,2.721,1.214,2.721,2.721   c0,1.506-1.221,2.72-2.721,2.72C174.984,12.332,173.77,11.118,173.77,9.612L173.77,9.612z" />
    <path fill="#9CA3AF"
      d="M178.589,9.612c0-1.164-0.95-2.099-2.1-2.099   c-1.171,0-2.099,0.935-2.099,2.099c0,1.164,0.928,2.099,2.099,2.099C177.639,11.711,178.589,10.775,178.589,9.612L178.589,9.612z" />
    <path
      d="M177.847,11.104h-0.7l-0.657-1.206h-0.55v1.206h-0.621V8.162h1.471   c0.679,0,1.143,0.122,1.143,0.899c0,0.543-0.278,0.765-0.8,0.8L177.847,11.104L177.847,11.104z" />
    <path fill="#9CA3AF"
      d="M176.804,9.426c0.328,0.007,0.507-0.071,0.507-0.442   c0-0.35-0.371-0.35-0.657-0.35h-0.714v0.792H176.804L176.804,9.426z" />
  </g>
</svg>
