<svg viewBox="0 0 190 23" xmlns="http://www.w3.org/2000/svg" fill="#9CA3AF">
  <path
    d="M169.84.407h1.384l-6.82 22.181h-3.725l-5.018-18.727-4.914 18.727h-3.726L140.993.408h3.198l5.54 21.166L155.203.407h2.842l5.345 21.167L169.84.407zM190 .44V22.62h-1.424L175.93 3.607V22.62h-1.3V.44h2.814l11.248 16.54V.44H190zM74.228.407h1.384l-6.82 22.181h-3.725L60.05 3.861l-4.915 18.727H51.41L45.38.408h3.198l5.54 21.166L59.592.407h2.842l5.344 21.167L74.228.407zm62.376 12.865a10.273 10.273 0 01-2.146 5.64v.032a10.638 10.638 0 01-6.21 1.997c-4.908 0-9.037-3.327-10.173-8.017-.75-3.074-.066-6.275 1.885-8.841 3.283-2.345 7.444-2.693 11.019-.855 3.642 1.87 5.883 5.798 5.625 10.044zM129.094.027c-2.21-.158-4.454.38-6.306 1.521-4.324 2.535-7.867 7.827-6.957 12.865A10.462 10.462 0 00126.168 23c7.088 0 14.01-8.682 12.222-15.21-1.136-4.277-4.842-7.383-9.295-7.763zm-13.848 2.06h-7.041V22.62h-3.212V2.087h-7.04V.439h17.293v1.648zM93.08.439h1.307V22.62h-1.424L80.319 3.607V22.62h-1.3V.44h2.814l11.248 16.54V.44zM41.187 13.272a10.257 10.257 0 01-2.146 5.64v.032a10.63 10.63 0 01-6.208 1.997c-4.91 0-9.037-3.327-10.175-8.017-.747-3.074-.063-6.275 1.886-8.841 3.282-2.345 7.443-2.693 11.02-.855 3.64 1.87 5.883 5.798 5.623 10.044zM33.677.027c-2.209-.158-4.452.38-6.306 1.521-4.321 2.535-7.867 7.827-6.957 12.865A10.465 10.465 0 0030.754 23c7.085 0 14.01-8.682 12.221-15.21C41.837 3.513 38.131.407 33.678.027zM13.168 18.66A9.89 9.89 0 017.8 20.56c-.486.032-.779.032-5.331.032V2.435h2.698c3.22 0 6.307 1.616 8.16 4.183a10.02 10.02 0 011.919 6.02 10.264 10.264 0 01-2.08 6.02zM8.94.565C7.933.407 6.89.44 5.884.44H0V22.62h5.623c3.088-.127 5.071-1.394 7.315-3.58 2.504-2.346 4.063-4.247 4.324-7.637.486-5.07-3.025-9.918-8.322-10.838z">
  </path>
</svg>
