<svg xmlns="http://www.w3.org/2000/svg" viewBox="0 0 207.3 46.7" fill="#9CA3AF">
  <g>
    <path d="M2.5,46.7H0V13.3C0,5.9,5.9,0,13.3,0h33.5v2.5H13.3c-6,0-10.8,4.8-10.8,10.8V46.7z" />
    <path d="M87.2,46.7H66.5c-7.3,0-13.2-5.9-13.2-13.2V0h2.5v33.5c0,5.9,4.8,10.7,10.7,10.7h20.7
		c5.9,0,10.7-4.8,10.7-10.7V0h2.5v33.5C100.5,40.8,94.5,46.7,87.2,46.7z" />
    <path d="M153.7,46.7h-33.5c-7.3,0-13.2-5.9-13.2-13.2V13.3C107,6,112.9,0,120.2,0h33.5v2.5h-33.5
		c-5.9,0-10.7,4.8-10.7,10.7v20.2c0,5.9,4.8,10.7,10.7,10.7h33.5V46.7z" />
    <path d="M207.3,46.7h-2.5V13.2c0-5.9-4.8-10.7-10.7-10.7h-20.7c-5.9,0-10.7,4.8-10.7,10.7v33.5h-2.5V13.2
		c0-7.3,5.9-13.2,13.2-13.2h20.7c7.3,0,13.2,5.9,13.2,13.2V46.7z" />
    <path d="M81.2,10.4h-8.6c-3.8,0-6.9-3.1-6.9-6.9V0h2.5v3.4c0,2.4,2,4.4,4.4,4.4h8.6c2.4,0,4.4-2,4.4-4.4V0h2.5v3.4
		C88.1,7.3,85,10.4,81.2,10.4z" />
    <path d="M19.3,18.8h8.6c3.8,0,6.9,3.1,6.9,6.9v3.4h-2.5v-3.4c0-2.4-2-4.4-4.4-4.4h-8.6c-2.4,0-4.4,2-4.4,4.4v3.4h-2.5
		v-3.4C12.4,21.9,15.5,18.8,19.3,18.8z" />
    <path d="M138.2,18.8h8.6c3.8,0,6.9,3.1,6.9,6.9v3.4h-2.5v-3.4c0-2.4-2-4.4-4.4-4.4h-8.6c-2.4,0-4.4,2-4.4,4.4v3.4h-2.5
		v-3.4C131.2,21.9,134.4,18.8,138.2,18.8z" />
    <path d="M179.4,36.4h8.6c3.8,0,6.9,3.1,6.9,6.9v3.4h-2.5v-3.4c0-2.4-2-4.4-4.4-4.4h-8.6c-2.4,0-4.4,2-4.4,4.4v3.4h-2.5
		v-3.4C172.5,39.5,175.6,36.4,179.4,36.4z" />
  </g>
</svg>
