<svg xmlns="http://www.w3.org/2000/svg" viewBox="0 0 425.2 132.41" fill="#9CA3AF">
  <path
    d="M67.08,85.24A10.09,10.09,0,0,0,57,95.32v24.37a10.08,10.08,0,1,0,20.15,0V95.32A10.09,10.09,0,0,0,67.08,85.24Zm4.22,34.45a4.23,4.23,0,1,1-8.45,0V95.32a4.23,4.23,0,1,1,8.45,0Z"
    transform="translate(-5.87 -5.81)" />
  <path
    d="M67.08,76.79A18.55,18.55,0,0,0,48.55,95.32v24.37a18.55,18.55,0,0,0,18.53,18.53h0A18.55,18.55,0,0,0,85.6,119.69V95.32A18.55,18.55,0,0,0,67.08,76.79Zm12.67,42.9a12.68,12.68,0,1,1-25.35,0V95.32a12.68,12.68,0,1,1,25.35,0Z"
    transform="translate(-5.87 -5.81)" />
  <path
    d="M128.78,77.84h-11.7a1.31,1.31,0,0,0-1.3,1.41v40.51a4.23,4.23,0,0,1-8.45,0V79.13a1.3,1.3,0,0,0-1.3-1.29H94.33A1.3,1.3,0,0,0,93,79.13v40.63a18.51,18.51,0,0,0,18.49,18.46h0a18.51,18.51,0,0,0,18.53-18.46V79.13A1.3,1.3,0,0,0,128.78,77.84Zm-4.55,41.93a12.68,12.68,0,0,1-25.35,0V85a1.3,1.3,0,0,1,2.6,0v34.81a10.08,10.08,0,0,0,20.15,0V85a1.3,1.3,0,0,1,2.6,0Z"
    transform="translate(-5.87 -5.81)" />
  <path
    d="M180.92,77.76H169.31A1.29,1.29,0,0,0,168,79.05v26.79L150.4,78.36a1.29,1.29,0,0,0-1.08-.6h-9A1.29,1.29,0,0,0,139,79.05v56.76a1.29,1.29,0,0,0,1.29,1.29H151.9a1.3,1.3,0,0,0,1.29-1.29V109L170.8,136.5a1.31,1.31,0,0,0,1.09.6h9a1.29,1.29,0,0,0,1.29-1.29V79.05A1.29,1.29,0,0,0,180.92,77.76ZM176.4,130h0v.08a.13.13,0,0,1,0,.06v0a.64.64,0,0,1,0,.07v0a.19.19,0,0,1,0,.08v0l0,.09s0,0,0,0l0,.07-.05.07s0,0,0,0l-.06.08h0l-.06.07,0,0L176,131l0,0-.05,0-.06,0h0l-.13.07h0l-.15.06h0l-.13,0h-.39l-.11,0h0l-.11,0h0l-.12,0h0l-.12-.08,0,0-.07-.06-.05,0-.07-.08,0,0-.09-.12h0L147.38,89.25V130a1.29,1.29,0,0,1-2.58,0V84.86h0a.22.22,0,0,1,0-.08v0s0,0,0-.06,0,0,0-.07v0s0-.06,0-.08v0a.36.36,0,0,1,0-.09v0a.25.25,0,0,0,0-.07l0-.07,0,0,.06-.09h0l.06-.07,0,0,.06,0a.08.08,0,0,1,0,0s0,0,0,0l.06,0h0a.05.05,0,0,0,0,0l.06,0,0,0,.07,0,.06,0,.06,0,.06,0h.62l.07,0h0l.08,0,0,0,.07,0,.07,0,0,0,.09.06h0l.07.06,0,0,0,0,0,0,0,0,0,.06h0l26.64,41.45V84.86a1.29,1.29,0,1,1,2.58,0Z"
    transform="translate(-5.87 -5.81)" />
  <path
    d="M209.69,86.22H199v42.57h10.67a11,11,0,0,0,10.93-10.94V97.16A11,11,0,0,0,209.69,86.22Zm5.13,31.63a5.13,5.13,0,0,1-5.13,5.13h-4.87V92h4.87a5.13,5.13,0,0,1,5.13,5.13Z"
    transform="translate(-5.87 -5.81)" />
  <path
    d="M209.69,77.84H191.92a1.29,1.29,0,0,0-1.29,1.29v56.75a1.29,1.29,0,0,0,1.29,1.29h17.77A19.35,19.35,0,0,0,229,117.85V97.16A19.35,19.35,0,0,0,209.69,77.84Zm13.51,40a13.53,13.53,0,0,1-13.51,13.52h-12a1.29,1.29,0,0,1-1.29-1.29V84.93a1.29,1.29,0,0,1,1.29-1.29h12A13.53,13.53,0,0,1,223.2,97.16Z"
    transform="translate(-5.87 -5.81)" />
  <path
    d="M33.46,128.57a12.1,12.1,0,0,1-8.7,3.63c-5.7,0-11-3.24-12.54-7.7a1.3,1.3,0,1,1,2.45-.86c1.2,3.4,5.54,6,10.09,6a9.52,9.52,0,0,0,6.85-2.85,10,10,0,0,0,2.83-7.25c-.1-8-5-9.8-10.77-11.87-5.56-2-11.86-4.27-11.86-13.36,0-6.77,4.87-11.48,12.13-11.73h0c5.79,0,10.74,3.2,12.33,7.95a1.3,1.3,0,0,1-2.47.83c-1.23-3.69-5.18-6.17-9.84-6.17-5.82.2-9.59,3.78-9.59,9.12,0,7.26,4.7,9,10.15,10.91,5.79,2.09,12.36,4.46,12.49,14.28a12.58,12.58,0,0,1-3.59,9.11m5-22c-2.52-2.69-6.12-4.78-11.71-6.77-5.08-1.74-6.18-2.71-6.18-5.49,0-1.47,1-3.19,3.86-3.19,2.05,0,3.75.87,4.13,2.12v0a7.67,7.67,0,0,1,.28,2.65c0,.18,0,.35,0,.52a1.3,1.3,0,0,0,1.3,1.3H41.68a1.3,1.3,0,0,0,1.3-1.3,25.55,25.55,0,0,0-.84-7.68c-2.66-8.24-11.16-12-17.94-12-10.42,0-18,7.38-18,17.55,0,12,8.37,16.43,15.67,18.93,5.7,1.94,6.85,3,6.85,6.39a3.92,3.92,0,0,1-4.08,4.19c-1.47,0-3.68-1-4.32-2.31-.3-.6-.32-1-.32-2.78a1.3,1.3,0,0,0-1.3-1.3H7.17a1.3,1.3,0,0,0-1.3,1.3,23.64,23.64,0,0,0,1,7.72c2.43,6.8,10.06,11.73,18.15,11.73a17.84,17.84,0,0,0,12.88-5.38,18.54,18.54,0,0,0,5.23-13.31c-.12-5.48-1.63-9.71-4.64-12.92"
    transform="translate(-5.87 -5.81)" />
  <path
    d="M38.23,11.2a18.25,18.25,0,0,0-13-5.38H8.14A1.28,1.28,0,0,0,6.86,7.11V63.86a1.28,1.28,0,0,0,1.28,1.29H19.75A1.28,1.28,0,0,0,21,63.86V42.58h4.19a18.38,18.38,0,0,0,13-31.38Zm-12.69.11h.06a1.61,1.61,0,0,1,0,3.22h-.08a1.61,1.61,0,0,1,.05-3.22Zm-13.2,7.23a1.61,1.61,0,0,1,3.22,0v0a1.61,1.61,0,1,1-3.22,0Zm0,5.65a1.61,1.61,0,1,1,3.22,0v0a1.61,1.61,0,1,1-3.22,0Zm0,5.64a1.61,1.61,0,0,1,3.22,0v0a1.61,1.61,0,1,1-3.22,0ZM14,59.66a1.6,1.6,0,0,1-1.61-1.6v0A1.61,1.61,0,1,1,14,59.66Zm1.61-7.23a1.61,1.61,0,1,1-3.22,0v0a1.61,1.61,0,0,1,3.22,0Zm0-5.64a1.61,1.61,0,0,1-3.22,0v0a1.61,1.61,0,0,1,3.22,0Zm0-5.64a1.61,1.61,0,0,1-3.22,0v0a1.61,1.61,0,0,1,3.22,0Zm-.27-4.75a1.61,1.61,0,0,1-2.95-.89v0a1.61,1.61,0,0,1,3.1-.62,1.7,1.7,0,0,1,.13.64A1.58,1.58,0,0,1,15.29,36.4Zm-.71-22a1.65,1.65,0,0,1-.63.13,1.61,1.61,0,0,1-1.61-1.61h0a1.61,1.61,0,0,1,1.52-1.61H14a1.62,1.62,0,0,1,.61,3.11Zm5.15-3.11h0a1.62,1.62,0,0,1,0,3.23h0a1.62,1.62,0,0,1,0-3.23Zm.06,25.8h0a1.61,1.61,0,0,1,0-3.22h0a1.61,1.61,0,0,1,0,3.22Zm5.85,0h-.08a1.62,1.62,0,0,1,0-3.23h0a1.62,1.62,0,1,1,.09,3.23Zm2.56-9.93a4.16,4.16,0,0,1-3,1.22H21V20h4.22a4.19,4.19,0,0,1,2.94,7.16Zm1.46-13.48a1.62,1.62,0,0,1,2.22-.55l0,0a1.61,1.61,0,0,1-.84,3,1.58,1.58,0,0,1-.83-.23l0,0A1.61,1.61,0,0,1,29.66,13.69Zm2.28,21.54-.05,0a1.63,1.63,0,0,1-.82.22,1.63,1.63,0,1,1,.87-.25Zm2.32-18a1.61,1.61,0,0,1,2.19.6l0,0a1.61,1.61,0,0,1-1.4,2.4,1.64,1.64,0,0,1-1.41-.82v0A1.6,1.6,0,0,1,34.26,17.23Zm2.23,13.29,0,0a1.61,1.61,0,0,1-2.2.61A1.61,1.61,0,0,1,33.66,29v0a1.62,1.62,0,0,1,2.82,1.58Zm1.64-6.32a1.61,1.61,0,1,1-3.22,0v0a1.61,1.61,0,1,1,3.22,0Z"
    transform="translate(-5.87 -5.81)" />
  <path
    d="M133.5,20a1.29,1.29,0,0,0,1.29-1.29V7.11a1.29,1.29,0,0,0-1.29-1.29H99.32A1.29,1.29,0,0,0,98,7.11h0v11.6A1.29,1.29,0,0,0,99.32,20h10V51h-10A1.29,1.29,0,0,0,98,52.26v11.6a1.29,1.29,0,0,0,1.29,1.29H133.5a1.28,1.28,0,0,0,1.29-1.29V52.26A1.28,1.28,0,0,0,133.5,51h-10V20Zm-5.82-8.71h0a1.62,1.62,0,1,1-1.62,1.62A1.62,1.62,0,0,1,127.7,11.3Zm-22.54,3.23a1.62,1.62,0,0,1,0-3.23h0a1.62,1.62,0,1,1,0,3.23Zm0,45.14a1.61,1.61,0,1,1,0-3.22h0a1.61,1.61,0,1,1,0,3.22Zm5.65,0h0a1.61,1.61,0,0,1,0-3.22h0a1.61,1.61,0,0,1,0,3.22Zm0-45.14h0a1.62,1.62,0,0,1,0-3.23h0a1.62,1.62,0,0,1,0,3.23Zm5.64,45.14h0a1.61,1.61,0,0,1-1.14-2.76,1.65,1.65,0,0,1,1.15-.48,1.63,1.63,0,0,1,1.15.48,1.61,1.61,0,0,1-1.13,2.76Zm0-37.1A1.62,1.62,0,0,1,118,24.19v0a1.62,1.62,0,0,1-3.23,0v0A1.61,1.61,0,0,1,116.41,22.57Zm-1.61-4v0a1.62,1.62,0,0,1,3.23,0v0a1.62,1.62,0,0,1-3.23,0Zm1.61,9.64A1.62,1.62,0,0,1,118,29.83v0a1.62,1.62,0,0,1-3.23,0v0A1.61,1.61,0,0,1,116.41,28.22Zm0,5.64A1.62,1.62,0,0,1,118,35.47v0a1.62,1.62,0,1,1-3.23,0v0A1.61,1.61,0,0,1,116.41,33.86Zm0,5.64A1.62,1.62,0,0,1,118,41.11v0a1.62,1.62,0,0,1-3.23,0v0A1.61,1.61,0,0,1,116.41,39.5Zm0,5.64A1.63,1.63,0,0,1,118,46.76v0a1.62,1.62,0,0,1-3.23,0v0A1.62,1.62,0,0,1,116.41,45.14Zm0,5.65A1.62,1.62,0,0,1,118,52.4v0a1.62,1.62,0,0,1-3.23,0v0A1.61,1.61,0,0,1,116.41,50.79Zm.64-36.39a1.53,1.53,0,0,1-.64.14,1.68,1.68,0,0,1-.91-.28,1.62,1.62,0,0,1,.9-3h0A1.62,1.62,0,0,1,118,12.92,1.6,1.6,0,0,1,117.05,14.4Zm10.63,42.05h0a1.61,1.61,0,1,1-1.62,1.61A1.61,1.61,0,0,1,127.7,56.45Zm-4,1.61a1.61,1.61,0,0,1-1.61,1.61h0a1.61,1.61,0,0,1,0-3.22h0A1.61,1.61,0,0,1,123.68,58.06Zm-1.61-43.53h0a1.62,1.62,0,0,1,0-3.23h0a1.62,1.62,0,0,1,0,3.23Z"
    transform="translate(-5.87 -5.81)" />
  <path
    d="M186.32,5.82h-9a1.29,1.29,0,0,0-1.08.59l-10.3,16L155.75,6.42a1.28,1.28,0,0,0-1.08-.6h-9a1.29,1.29,0,0,0-1.29,1.29V63.86a1.29,1.29,0,0,0,1.29,1.29H157.3a1.29,1.29,0,0,0,1.29-1.29V37.06l6.29,9.86a1.3,1.3,0,0,0,1.09.59h0a1.28,1.28,0,0,0,1.08-.59L173.42,37V63.86a1.29,1.29,0,0,0,1.29,1.29h11.61a1.29,1.29,0,0,0,1.29-1.29V7.11A1.29,1.29,0,0,0,186.32,5.82ZM151.49,59.66a1.6,1.6,0,0,1-1.61-1.6v0a1.62,1.62,0,0,1,3.23,0A1.63,1.63,0,0,1,151.49,59.66Zm1.62-7.23a1.62,1.62,0,1,1-3.23,0v0a1.62,1.62,0,0,1,3.23,0Zm0-5.64a1.62,1.62,0,0,1-3.23,0v0a1.62,1.62,0,0,1,3.23,0Zm0-5.64a1.62,1.62,0,0,1-3.23,0v0a1.62,1.62,0,0,1,3.23,0Zm0-5.64a1.62,1.62,0,0,1-3.23,0v0a1.62,1.62,0,0,1,3.23,0Zm0-5.65a1.62,1.62,0,0,1-3.23,0v0a1.62,1.62,0,0,1,3.23,0Zm0-5.64a1.62,1.62,0,0,1-3.23,0v0a1.62,1.62,0,1,1,3.23,0Zm0-5.64a1.62,1.62,0,0,1-3.23,0v0a1.62,1.62,0,0,1,3.23,0Zm-1.62-4a1.61,1.61,0,0,1-1.61-1.61h0a1.62,1.62,0,1,1,1.61,1.62Zm6.36,8.29a1.6,1.6,0,0,1-2.23-.49,1.61,1.61,0,0,1,2.71-1.75v0A1.6,1.6,0,0,1,157.85,22.83Zm3,4.68a1.62,1.62,0,0,1-.87.25,1.59,1.59,0,0,1-1.35-.74l0,0a1.61,1.61,0,0,1,2.71-1.74l0,0A1.62,1.62,0,0,1,160.85,27.51Zm3,4.67a1.53,1.53,0,0,1-.87.26,1.6,1.6,0,0,1-1.35-.74l0,0a1.61,1.61,0,1,1,2.71-1.74l0,0A1.62,1.62,0,0,1,163.85,32.18Zm3.49,4.16v0a1.76,1.76,0,0,1-.49.49l-.07,0-.12,0a1.45,1.45,0,0,1-.67.17,1.63,1.63,0,0,1-.86-.25h0l0,0a1.63,1.63,0,0,1-.42-.41h0l0,0a1.13,1.13,0,0,1-.11-.22v0a1,1,0,0,1-.08-.25l0,0a2.08,2.08,0,0,1,0-.23v-.08a1.69,1.69,0,0,1,0-.23.25.25,0,0,0,0-.08,2,2,0,0,1,.07-.26,0,0,0,0,0,0,0,1.61,1.61,0,0,1,.55-.72l.06,0s0,0,0,0l.11,0,.17-.09.09,0,.22-.07h.05a1.6,1.6,0,0,1,1.81,1.94h0a1.43,1.43,0,0,1-.09.27.54.54,0,0,1-.05.11A.75.75,0,0,1,167.34,36.34Zm3-4.67,0,0a1.6,1.6,0,0,1-1.35.74,1.67,1.67,0,0,1-.88-.26,1.62,1.62,0,0,1-.48-2.23l0,0a1.61,1.61,0,1,1,2.71,1.75Zm3-4.68,0,0a1.61,1.61,0,1,1-2.72-1.74l0,0A1.61,1.61,0,0,1,173.37,27Zm3-4.66a1.61,1.61,0,0,1-2.24.49,1.61,1.61,0,0,1-.48-2.22v0a1.61,1.61,0,0,1,2.71,1.75Zm5.76,35.73a1.62,1.62,0,1,1-1.62-1.62,1.61,1.61,0,0,1,1.62,1.62Zm0-5.63a1.62,1.62,0,1,1-3.23,0v0a1.62,1.62,0,0,1,3.23,0Zm0-5.64a1.62,1.62,0,0,1-3.23,0v0a1.62,1.62,0,0,1,3.23,0Zm0-5.64a1.62,1.62,0,0,1-3.23,0v0a1.62,1.62,0,0,1,3.23,0Zm0-5.64a1.62,1.62,0,0,1-3.23,0v0a1.62,1.62,0,0,1,3.23,0Zm0-5.65a1.62,1.62,0,0,1-3.23,0v0a1.62,1.62,0,0,1,3.23,0Zm0-5.64a1.62,1.62,0,0,1-3.23,0v0a1.62,1.62,0,1,1,3.23,0Zm0-5.64a1.62,1.62,0,0,1-3.23,0v0a1.62,1.62,0,0,1,3.23,0Zm0-5.65a1.62,1.62,0,1,1-1.62-1.62,1.62,1.62,0,0,1,1.62,1.62Z"
    transform="translate(-5.87 -5.81)" />
  <path
    d="M378.58,63.29l-11.8-23.68a18.38,18.38,0,0,0-10-33.79H339.66a1.29,1.29,0,0,0-1.29,1.29V63.86a1.29,1.29,0,0,0,1.29,1.29h11.61a1.29,1.29,0,0,0,1.29-1.29V42.94l10.74,21.5a1.27,1.27,0,0,0,1.15.71h13a1.28,1.28,0,0,0,1.1-.61A1.27,1.27,0,0,0,378.58,63.29ZM368,30.52v0a1.64,1.64,0,0,1-1.41.82,1.61,1.61,0,0,1-1.4-2.4v0A1.61,1.61,0,1,1,368,30.52Zm1.65-6.35v0a1.61,1.61,0,1,1-3.22,0v0a1.61,1.61,0,0,1,3.22,0Zm-3.88-6.94a1.61,1.61,0,0,1,2.2.6l0,0a1.61,1.61,0,0,1-1.4,2.4,1.62,1.62,0,0,1-1.41-.82v0A1.61,1.61,0,0,1,365.77,17.23Zm-4.59-3.54a1.62,1.62,0,0,1,2.22-.55l0,0a1.61,1.61,0,0,1-.84,3,1.58,1.58,0,0,1-.83-.23l0,0A1.61,1.61,0,0,1,361.18,13.69Zm2.28,21.54-.06,0a1.61,1.61,0,0,1-2.2-.57,1.62,1.62,0,1,1,2.26.54ZM361,24.2a4.18,4.18,0,0,1-4.2,4.19h-4.19V20h4.22A4.2,4.2,0,0,1,361,24.2ZM357.1,11.31h0a1.61,1.61,0,0,1,0,3.22H357a1.61,1.61,0,1,1,.09-3.22ZM345.47,59.66a1.61,1.61,0,0,1-1.62-1.6v0a1.62,1.62,0,1,1,1.62,1.62Zm1.61-7.23a1.62,1.62,0,0,1-3.23,0v0a1.62,1.62,0,0,1,3.23,0Zm0-5.64a1.62,1.62,0,0,1-3.23,0v0a1.62,1.62,0,1,1,3.23,0Zm0-5.64a1.62,1.62,0,0,1-3.23,0v0a1.62,1.62,0,0,1,3.23,0Zm0-5.65a1.62,1.62,0,1,1-3.23,0v0a1.62,1.62,0,0,1,3.23,0Zm0-5.64a1.62,1.62,0,0,1-3.23,0v0a1.62,1.62,0,0,1,3.23,0Zm0-5.64a1.62,1.62,0,0,1-3.23,0v0a1.62,1.62,0,1,1,3.23,0Zm0-5.64a1.62,1.62,0,0,1-3.23,0v0a1.62,1.62,0,0,1,3.23,0Zm-1.61-4a1.62,1.62,0,0,1-1.62-1.61h0a1.62,1.62,0,1,1,1.62,1.62Zm5.78-3.24h0a1.62,1.62,0,0,1,0,3.23h0a1.62,1.62,0,0,1,0-3.23Zm.06,25.8h0a1.61,1.61,0,1,1,0-3.22h0a1.61,1.61,0,1,1,0,3.22Zm5.82,0h-.05a1.62,1.62,0,0,1-.05-3.23h0a1.62,1.62,0,0,1,1.65,1.57,1.59,1.59,0,0,1-1.56,1.65Zm2.47,5.66a1.62,1.62,0,0,1-1.45-.89l0,0A1.61,1.61,0,0,1,361,40.39l0,0a1.62,1.62,0,0,1-.73,2.16A1.65,1.65,0,0,1,359.6,42.76Zm3.53,5.47a1.55,1.55,0,0,1-.72.17,1.6,1.6,0,0,1-1.44-.89l0,0A1.61,1.61,0,1,1,363.84,46v0A1.6,1.6,0,0,1,363.13,48.23Zm2.1,5.82a1.61,1.61,0,0,1-1.44-.9l0,0a1.61,1.61,0,0,1,2.89-1.44v0a1.61,1.61,0,0,1-.72,2.17A1.69,1.69,0,0,1,365.23,54.05Zm3.53,5.45a1.55,1.55,0,0,1-.72.17,1.6,1.6,0,0,1-1.44-.89,1.61,1.61,0,1,1,2.87-1.46h0A1.61,1.61,0,0,1,368.76,59.5Z"
    transform="translate(-5.87 -5.81)" />
  <path
    d="M327.6,20a1.29,1.29,0,0,0,1.29-1.29V7.11a1.29,1.29,0,0,0-1.29-1.29H293.42a1.29,1.29,0,0,0-1.29,1.29V63.86a1.29,1.29,0,0,0,1.29,1.29H327.6a1.29,1.29,0,0,0,1.29-1.29V52.25A1.29,1.29,0,0,0,327.6,51H306.32V42.58h10a1.28,1.28,0,0,0,1.28-1.29V29.68a1.28,1.28,0,0,0-1.28-1.29h-10V20Zm-5.82-8.71h0a1.62,1.62,0,1,1-1.62,1.62A1.62,1.62,0,0,1,321.8,11.3Zm-5.64,0h0a1.62,1.62,0,0,1,0,3.23h0a1.62,1.62,0,1,1,0-3.23Zm-5.65,0h0a1.62,1.62,0,0,1,0,3.23h0a1.62,1.62,0,0,1,0-3.23Zm-12.88,7.24a1.62,1.62,0,0,1,3.23,0v0a1.62,1.62,0,0,1-3.23,0Zm0,5.65a1.62,1.62,0,1,1,3.23,0v0a1.62,1.62,0,0,1-3.23,0Zm0,5.64a1.62,1.62,0,0,1,3.23,0v0a1.62,1.62,0,0,1-3.23,0Zm0,11.28a1.62,1.62,0,0,1,3.23,0v0a1.62,1.62,0,0,1-3.23,0Zm0,5.65a1.62,1.62,0,1,1,3.23,0v0a1.62,1.62,0,0,1-3.23,0Zm0,5.64a1.62,1.62,0,0,1,3.23,0v0a1.62,1.62,0,0,1-3.23,0Zm1.63,7.27a1.74,1.74,0,0,1-.64-.13,1.6,1.6,0,0,1-1-1.48v0a1.61,1.61,0,0,1,1.62-1.61,1.64,1.64,0,0,1,1.62,1.63A1.61,1.61,0,0,1,299.24,59.67Zm1.13-23a1.61,1.61,0,0,1-2.76-1.14v0a1.61,1.61,0,0,1,1.62-1.61,1.64,1.64,0,0,1,1.62,1.63A1.61,1.61,0,0,1,300.37,36.64Zm-.51-22.24a1.49,1.49,0,0,1-.63.14,1.61,1.61,0,0,1-1.62-1.61h0a1.62,1.62,0,0,1,1.62-1.62h0a1.62,1.62,0,0,1,1.61,1.62A1.6,1.6,0,0,1,299.86,14.4Zm21.92,42.05h0a1.61,1.61,0,1,1-1.62,1.61A1.61,1.61,0,0,1,321.8,56.45Zm-5.64,0h0a1.61,1.61,0,0,1,0,3.22h0a1.61,1.61,0,1,1,0-3.22Zm-5.65,0h0a1.61,1.61,0,1,1,0,3.22h0a1.61,1.61,0,0,1,0-3.22Zm-4,1.61a1.62,1.62,0,0,1-1.62,1.61h0a1.61,1.61,0,0,1,0-3.22h0A1.62,1.62,0,0,1,306.5,58.06Zm4-24.18h0a1.61,1.61,0,1,1-1.62,1.61A1.61,1.61,0,0,1,310.51,33.88Zm-4,1.61a1.62,1.62,0,0,1-1.62,1.61h0a1.61,1.61,0,0,1,0-3.22h0A1.62,1.62,0,0,1,306.5,35.49Zm-1.62-21h0a1.62,1.62,0,0,1,0-3.23h0a1.62,1.62,0,1,1,0,3.23Z"
    transform="translate(-5.87 -5.81)" />
  <path
    d="M234.22,59.58a1.53,1.53,0,0,1-.52.08,1.61,1.61,0,0,1-1.52-1.09h0a1.61,1.61,0,1,1,2,1M230.29,53v0a1.61,1.61,0,1,1,3.06-1v0a1.61,1.61,0,0,1-1,2,1.57,1.57,0,0,1-.52.08A1.62,1.62,0,0,1,230.29,53m-1.57-5.1-.06-.06,0-.06a1.6,1.6,0,0,1-.32-1,2.11,2.11,0,0,1,0-.25.11.11,0,0,0,0-.05.64.64,0,0,1,0-.07.36.36,0,0,1,0-.1v0a1.61,1.61,0,0,1,3-.15l0,.06a.08.08,0,0,0,0,.05h0a.49.49,0,0,1,0,.11v0s0,.06,0,.09a.19.19,0,0,1,0,.08.07.07,0,0,1,0,0v.11h0V47a.51.51,0,0,1,0,.13v0a.65.65,0,0,1,0,.13h0a1.59,1.59,0,0,1-1,1.05,1.57,1.57,0,0,1-.52.08,1.61,1.61,0,0,1-1.2-.54m-2.06-5.74v0a1.61,1.61,0,1,1,3-1v0a1.61,1.61,0,0,1-1,2,1.51,1.51,0,0,1-.51.08,1.6,1.6,0,0,1-1.53-1.1m-1.74-5.18v0a1.61,1.61,0,1,1,3.05-1v0a1.6,1.6,0,0,1-1,2,1.58,1.58,0,0,1-.52.09,1.61,1.61,0,0,1-1.52-1.1m-.66,11.46h0a1.62,1.62,0,0,1,0-3.23h0a1.62,1.62,0,0,1,0,3.23m-5.69,0h0a1.62,1.62,0,0,1,0-3.23h0a1.62,1.62,0,1,1,0,3.23m-5.68,0h0a1.62,1.62,0,1,1,0-3.23h0a1.62,1.62,0,0,1,0,3.23M210.46,37a1.61,1.61,0,0,1-1-2l0,0a1.61,1.61,0,1,1,3,1v0a1.62,1.62,0,0,1-1.53,1.1,1.52,1.52,0,0,1-.51-.09m.16,4.6v0a1.63,1.63,0,0,1-1.53,1.1,1.58,1.58,0,0,1-.52-.09,1.61,1.61,0,0,1-1-2v0a1.61,1.61,0,0,1,3.06,1m-2.5,6.47h0l-.15.09a1.62,1.62,0,0,1-.78.2,1.81,1.81,0,0,1-.51-.08,1.62,1.62,0,0,1-1-2v0a1.62,1.62,0,0,1,2.78-.5h0l.06.07a1.66,1.66,0,0,1,.31,1,1.62,1.62,0,0,1-.7,1.33m-1.29,4.82v0A1.62,1.62,0,0,1,205.29,54a1.51,1.51,0,0,1-.51-.08,1.61,1.61,0,0,1-1-2v0a1.61,1.61,0,1,1,3.06,1m-1.9,5.64h0a1.61,1.61,0,0,1-1.53,1.1,1.81,1.81,0,0,1-.51-.08,1.62,1.62,0,1,1,2-1m6.41-29.2v0a1.61,1.61,0,0,1,3.06,1v0a1.63,1.63,0,0,1-1.53,1.1,1.51,1.51,0,0,1-.51-.08,1.61,1.61,0,0,1-1-2m1.89-5.66v0a1.61,1.61,0,0,1,3.06,1v0a1.61,1.61,0,0,1-3.06-1m1.9-5.64v0a1.61,1.61,0,0,1,3.05,1v0a1.61,1.61,0,0,1-1.52,1.1,1.58,1.58,0,0,1-.52-.09,1.61,1.61,0,0,1-1-2M217,12.42a1.61,1.61,0,0,1,2-1,1.59,1.59,0,0,1,1,2h0a1.61,1.61,0,0,1-1.53,1.1,1.51,1.51,0,0,1-.51-.08,1.61,1.61,0,0,1-1-2m5.73,7.91a1.63,1.63,0,0,1-1,2.05,1.53,1.53,0,0,1-.52.08,1.61,1.61,0,0,1-1.52-1.09v0a1.61,1.61,0,1,1,3.06-1m0,21.28h-8.39l4.2-12.48Zm1.73-16.11v0a1.61,1.61,0,0,1-1,2,1.58,1.58,0,0,1-.52.09,1.61,1.61,0,0,1-1.52-1.1v0a1.61,1.61,0,0,1,3-1m1.74,5.19v0a1.61,1.61,0,0,1-1,2,1.88,1.88,0,0,1-.52.08,1.59,1.59,0,0,1-1.52-1.1v0a1.61,1.61,0,1,1,3.05-1M243,63.35,224,6.7a1.29,1.29,0,0,0-1.22-.88h-8.35a1.3,1.3,0,0,0-1.22.88l-19,56.75a1.28,1.28,0,0,0,1.22,1.7h12.24a1.29,1.29,0,0,0,1.23-.88l3.49-10.4h12.53l3.49,10.4a1.29,1.29,0,0,0,1.23.88h12.25a1.29,1.29,0,0,0,1.29-1.29,1.26,1.26,0,0,0-.11-.51"
    transform="translate(-5.87 -5.81)" />
  <path
    d="M422.21,59.58a1.51,1.51,0,0,1-.51.08,1.6,1.6,0,0,1-1.52-1.09h0a1.61,1.61,0,1,1,2,1M418.29,53v0a1.61,1.61,0,1,1,3.05-1v0a1.61,1.61,0,0,1-1,2,1.57,1.57,0,0,1-.52.08A1.6,1.6,0,0,1,418.29,53m-1.58-5.1,0-.06-.05-.06a1.6,1.6,0,0,1-.32-1,1.07,1.07,0,0,1,0-.25v-.05a.64.64,0,0,1,0-.07s0-.07,0-.1v0a1.61,1.61,0,0,1,3-.15l0,.06a.08.08,0,0,0,0,.05h0l0,.11v0s0,.06,0,.09a.25.25,0,0,0,0,.08v0s0,.08,0,.11h0v0s0,.09,0,.13v0a.69.69,0,0,0,0,.13v0l0,.13h0a1.59,1.59,0,0,1-1,1.05,1.57,1.57,0,0,1-.52.08,1.62,1.62,0,0,1-1.2-.54m-2.06-5.74v0a1.61,1.61,0,1,1,3.06-1v0a1.61,1.61,0,0,1-1,2,1.51,1.51,0,0,1-.51.08,1.61,1.61,0,0,1-1.53-1.1m-1.74-5.18v0a1.61,1.61,0,0,1,3.06-1v0a1.62,1.62,0,0,1-1,2,1.52,1.52,0,0,1-.51.09,1.62,1.62,0,0,1-1.53-1.1m-.66,11.46h0a1.62,1.62,0,1,1,0-3.23h0a1.62,1.62,0,0,1,0,3.23m-5.68,0h0a1.62,1.62,0,0,1,0-3.23h0a1.62,1.62,0,0,1,0,3.23m-5.69,0h0a1.62,1.62,0,0,1,0-3.23h0a1.62,1.62,0,0,1,0,3.23M398.45,37a1.61,1.61,0,0,1-1-2v0a1.61,1.61,0,1,1,3.05,1v0a1.61,1.61,0,0,1-1.52,1.1,1.54,1.54,0,0,1-.52-.09m.16,4.6v0a1.61,1.61,0,0,1-3.06-1v0a1.61,1.61,0,0,1,3.06,1m-2.49,6.47h0l-.15.09a1.58,1.58,0,0,1-.77.2,1.88,1.88,0,0,1-.52-.08,1.62,1.62,0,0,1-1-2v0a1.62,1.62,0,0,1,2.78-.5h0l.05.07a1.66,1.66,0,0,1,.31,1,1.61,1.61,0,0,1-.69,1.33m-1.3,4.82v0A1.61,1.61,0,0,1,393.28,54a1.51,1.51,0,0,1-.51-.08,1.61,1.61,0,0,1-1-2l0,0a1.61,1.61,0,1,1,3.05,1m-1.89,5.64h0a1.6,1.6,0,0,1-1.53,1.1,1.81,1.81,0,0,1-.51-.08,1.62,1.62,0,1,1,2.05-1m6.4-29.2v0a1.61,1.61,0,0,1,3.06,1v0a1.61,1.61,0,0,1-1.53,1.1,1.51,1.51,0,0,1-.51-.08,1.61,1.61,0,0,1-1-2m1.9-5.66v0a1.61,1.61,0,1,1,3.05,1v0a1.61,1.61,0,0,1-1.53,1.1,1.52,1.52,0,0,1-.51-.09,1.6,1.6,0,0,1-1-2m1.89-5.64v0a1.61,1.61,0,0,1,3.06,1v0a1.63,1.63,0,0,1-1.53,1.1,1.58,1.58,0,0,1-.52-.09,1.61,1.61,0,0,1-1-2M405,12.42a1.62,1.62,0,0,1,3.07,1h0a1.61,1.61,0,0,1-1.53,1.1,1.51,1.51,0,0,1-.51-.08,1.62,1.62,0,0,1-1-2m5.73,7.91a1.63,1.63,0,0,1-1,2.05,1.51,1.51,0,0,1-.51.08,1.6,1.6,0,0,1-1.52-1.09v0a1.61,1.61,0,0,1,3.06-1m0,21.28h-8.38l4.19-12.48Zm1.73-16.11v0a1.61,1.61,0,0,1-1,2,1.52,1.52,0,0,1-.51.09,1.61,1.61,0,0,1-1.53-1.1v0a1.61,1.61,0,0,1,3.05-1m1.75,5.19v0a1.61,1.61,0,0,1-1,2,1.81,1.81,0,0,1-.51.08,1.6,1.6,0,0,1-1.53-1.1v0a1.61,1.61,0,1,1,3.06-1M431,63.35,412,6.7a1.3,1.3,0,0,0-1.23-.88h-8.35a1.3,1.3,0,0,0-1.22.88l-19,56.75a1.29,1.29,0,0,0,1.22,1.7h12.25a1.29,1.29,0,0,0,1.22-.88l3.49-10.4h12.53l3.5,10.4a1.28,1.28,0,0,0,1.22.88h12.25a1.29,1.29,0,0,0,1.29-1.29,1.26,1.26,0,0,0-.11-.51"
    transform="translate(-5.87 -5.81)" />
  <path
    d="M278.2,13.38s0,.06,0,.09a1.62,1.62,0,0,1-1.52,1.06,1.76,1.76,0,0,1-.55-.09,1.62,1.62,0,0,1-1-2,1.61,1.61,0,0,1,3.06,1m-1.79,5.34v0a1.61,1.61,0,0,1-1.53,1.1,1.81,1.81,0,0,1-.51-.08,1.62,1.62,0,0,1-1-2l0,0a1.61,1.61,0,1,1,3.05,1M274.63,24l0,.07a1.6,1.6,0,0,1-1.51,1.06,1.76,1.76,0,0,1-.55-.09,1.63,1.63,0,1,1,2.09-1m-1.79,5.32v0a1.62,1.62,0,0,1-1.53,1.1,1.81,1.81,0,0,1-.51-.08,1.62,1.62,0,0,1-1-2.05v0a1.61,1.61,0,0,1,3.06,1m-1.79,5.32v0a1.61,1.61,0,0,1-1.52,1.1,1.58,1.58,0,0,1-.52-.09,1.61,1.61,0,0,1-1-2v0a1.61,1.61,0,1,1,3.05,1M269.27,40v0a1.61,1.61,0,0,1-1.53,1.1,1.51,1.51,0,0,1-.51-.08,1.61,1.61,0,0,1-1-2v0a1.61,1.61,0,1,1,3.06,1m-1.78,5.32v0a1.63,1.63,0,0,1-1.53,1.1,1.75,1.75,0,0,1-.51-.08,1.62,1.62,0,0,1-1-2v0a1.61,1.61,0,1,1,3.06,1m-1.79,5.31v0a1.63,1.63,0,0,1-1.53,1.1,1.52,1.52,0,0,1-.51-.09,1.61,1.61,0,0,1,1-3.06,1.59,1.59,0,0,1,1,2m-3.68,9a1.57,1.57,0,0,1-.52.08A1.6,1.6,0,0,1,260,58.56h0a1.61,1.61,0,1,1,2,1m-3.93-6.63v0a1.61,1.61,0,1,1,3.06-1v0a1.61,1.61,0,0,1-1,2,1.51,1.51,0,0,1-.51.08,1.62,1.62,0,0,1-1.53-1.09m-1.89-5.65v0a1.61,1.61,0,1,1,3.05-1v0a1.62,1.62,0,0,1-1,2.05,1.82,1.82,0,0,1-.52.08,1.59,1.59,0,0,1-1.52-1.1m-1.9-5.64v0a1.61,1.61,0,0,1,3.06-1v0a1.61,1.61,0,0,1-1,2,1.52,1.52,0,0,1-.51.09,1.63,1.63,0,0,1-1.53-1.1M252.41,36v0a1.61,1.61,0,1,1,3-1v0a1.6,1.6,0,0,1-1,2,1.52,1.52,0,0,1-.51.09,1.62,1.62,0,0,1-1.53-1.1m-1.9-5.65v0a1.61,1.61,0,0,1,3.06-1v0a1.62,1.62,0,0,1-1,2,1.57,1.57,0,0,1-.52.08,1.61,1.61,0,0,1-1.53-1.1m-1.89-5.64v0a1.61,1.61,0,1,1,3-1v0a1.59,1.59,0,0,1-1,2,1.52,1.52,0,0,1-.51.09,1.62,1.62,0,0,1-1.53-1.1m-1.9-5.64v0a1.61,1.61,0,1,1,3.06-1v0a1.61,1.61,0,0,1-1,2,1.58,1.58,0,0,1-.52.09,1.63,1.63,0,0,1-1.53-1.1m-1.89-5.65h0a1.61,1.61,0,1,1,2.05,1,1.58,1.58,0,0,1-.52.09,1.6,1.6,0,0,1-1.52-1.1m40.95-7.08a1.28,1.28,0,0,0-1-.54H272.49a1.29,1.29,0,0,0-1.22.88l-9.76,29.07L251.75,6.69a1.3,1.3,0,0,0-1.22-.88H238.28a1.31,1.31,0,0,0-1.05.54,1.29,1.29,0,0,0-.17,1.16l19.05,56.75a1.29,1.29,0,0,0,1.22.88h8.35a1.27,1.27,0,0,0,1.22-.88L286,7.51a1.3,1.3,0,0,0-.18-1.16"
    transform="translate(-5.87 -5.81)" />
  <path
    d="M91.61,63.29,79.8,39.61a18.38,18.38,0,0,0-10-33.79H52.69A1.29,1.29,0,0,0,51.4,7.11V63.86a1.29,1.29,0,0,0,1.29,1.29H64.3a1.29,1.29,0,0,0,1.29-1.29V42.94l10.73,21.5a1.29,1.29,0,0,0,1.16.71h13a1.29,1.29,0,0,0,1.16-1.86ZM81,30.52l0,0A1.61,1.61,0,0,1,78.2,29l0,0A1.61,1.61,0,1,1,81,30.52Zm1.65-6.35v0a1.62,1.62,0,1,1-3.23,0v0a1.62,1.62,0,0,1,3.23,0ZM78.8,17.23a1.61,1.61,0,0,1,2.2.6l0,0a1.61,1.61,0,0,1-2.81,1.58v0A1.61,1.61,0,0,1,78.8,17.23Zm-4.59-3.54a1.61,1.61,0,0,1,2.21-.55l0,0a1.61,1.61,0,0,1-.83,3,1.55,1.55,0,0,1-.83-.23l0,0A1.61,1.61,0,0,1,74.21,13.69Zm2.28,21.54-.06,0a1.63,1.63,0,0,1-.82.22,1.62,1.62,0,1,1,.88-.25ZM74,24.2a4.17,4.17,0,0,1-4.19,4.19H65.59V20h4.22A4.2,4.2,0,0,1,74,24.2ZM70.13,11.31h0a1.61,1.61,0,0,1,0,3.22H70a1.61,1.61,0,0,1,.1-3.22ZM58.49,59.66a1.6,1.6,0,0,1-1.61-1.6v0a1.62,1.62,0,1,1,1.61,1.62Zm1.62-7.23a1.62,1.62,0,0,1-3.23,0v0a1.62,1.62,0,0,1,3.23,0Zm0-5.64a1.62,1.62,0,0,1-3.23,0v0a1.62,1.62,0,1,1,3.23,0Zm0-5.64a1.62,1.62,0,0,1-3.23,0v0a1.62,1.62,0,0,1,3.23,0Zm0-5.65a1.62,1.62,0,1,1-3.23,0v0a1.62,1.62,0,0,1,3.23,0Zm0-5.64a1.62,1.62,0,0,1-3.23,0v0a1.62,1.62,0,0,1,3.23,0Zm0-5.64a1.62,1.62,0,0,1-3.23,0v0a1.62,1.62,0,1,1,3.23,0Zm0-5.64a1.62,1.62,0,0,1-3.23,0v0a1.62,1.62,0,0,1,3.23,0Zm-1.62-4a1.61,1.61,0,0,1-1.61-1.61h0a1.62,1.62,0,1,1,1.61,1.62Zm5.79-3.24h0a1.62,1.62,0,1,1,0,3.23h0a1.62,1.62,0,0,1,0-3.23Zm.06,25.8h0a1.61,1.61,0,0,1,0-3.22h0a1.61,1.61,0,0,1,0,3.22Zm5.81,0h0a1.62,1.62,0,0,1,0-3.23h0a1.62,1.62,0,0,1,1.66,1.57,1.59,1.59,0,0,1-1.56,1.65Zm2.47,5.66a1.61,1.61,0,0,1-1.44-.89l0,0a1.61,1.61,0,0,1,2.89-1.44v0a1.61,1.61,0,0,1-.72,2.16A1.69,1.69,0,0,1,72.62,42.76Zm3.54,5.47a1.55,1.55,0,0,1-.72.17A1.6,1.6,0,0,1,74,47.51l0,0A1.61,1.61,0,1,1,76.87,46v0A1.6,1.6,0,0,1,76.16,48.23Zm2.1,5.82a1.63,1.63,0,0,1-1.45-.9v0a1.61,1.61,0,0,1,2.88-1.44l0,0A1.62,1.62,0,0,1,79,53.88,1.69,1.69,0,0,1,78.26,54.05Zm3.53,5.45a1.55,1.55,0,0,1-.72.17,1.6,1.6,0,0,1-1.44-.89,1.61,1.61,0,1,1,2.87-1.46h0A1.61,1.61,0,0,1,81.79,59.5Z"
    transform="translate(-5.87 -5.81)" />
</svg>
